<svg width="32" height="32" viewBox="0 0 32 32" fill="none" xmlns="http://www.w3.org/2000/svg">
<path d="M20 28V22.6667C20 21.9594 20.281 21.2811 20.781 20.781C21.2811 20.281 21.9594 20 22.6667 20H28" stroke="#3B3B3A" stroke-linecap="round" stroke-linejoin="round"/>
<path d="M9.33325 5.33325V7.99992C9.62088 8.81789 10.1665 9.52024 10.888 10.0012C11.6094 10.4822 12.4676 10.7157 13.3333 10.6666C14.0405 10.6666 14.7188 10.9475 15.2189 11.4476C15.719 11.9477 15.9999 12.626 15.9999 13.3333C15.9999 14.0405 16.2809 14.7188 16.781 15.2189C17.2811 15.719 17.9593 15.9999 18.6666 15.9999C19.3738 15.9999 20.0521 15.719 20.5522 15.2189C21.0523 14.7188 21.3333 14.0405 21.3333 13.3333C21.3333 12.626 21.6142 11.9477 22.1143 11.4476C22.6144 10.9475 23.2927 10.6666 23.9999 10.6666H27.9999" stroke="#3B3B3A" stroke-linecap="round" stroke-linejoin="round"/>
<path d="M4 14.6667H6.66667C7.37391 14.6667 8.05219 14.9477 8.55229 15.4478C9.05238 15.9479 9.33333 16.6262 9.33333 17.3334V18.6667C9.33333 19.374 9.61428 20.0523 10.1144 20.5524C10.6145 21.0525 11.2928 21.3334 12 21.3334C12.7072 21.3334 13.3855 21.6144 13.8856 22.1145C14.3857 22.6146 14.6667 23.2928 14.6667 24.0001V29.3334" stroke="#3B3B3A" stroke-linecap="round" stroke-linejoin="round"/>
<path d="M16.0001 29.3334C23.3639 29.3334 29.3334 23.3639 29.3334 16.0001C29.3334 8.63628 23.3639 2.66675 16.0001 2.66675C8.63628 2.66675 2.66675 8.63628 2.66675 16.0001C2.66675 23.3639 8.63628 29.3334 16.0001 29.3334Z" stroke="#3B3B3A" stroke-linecap="round" stroke-linejoin="round"/>
</svg>
