<svg width="4096" height="2048" viewBox="0 -102 4096 2048" fill="none" xmlns="http://www.w3.org/2000/svg">
<g clip-path="url(#clip0_84_3721)">
<rect width="4096" height="2048" fill="white"/>
<path d="M4555 -228V2270.86H-459V-228H4555Z" fill="#DBDBDB"/>
<path d="M3024.57 244.52C3058.62 244.562 3091.05 259.071 3113.78 284.429L3418.36 624.272C3438.09 646.285 3449 674.804 3449 704.363V1345.23C3449 1374.78 3438.09 1403.3 3418.36 1425.32L3113.9 1765.02C3091.1 1790.46 3058.54 1804.98 3024.39 1804.93L1071.43 1802.48C1037.38 1802.44 1004.95 1787.93 982.223 1762.57L677.638 1422.73C657.91 1400.72 647 1372.2 647 1342.64V701.776C647 672.217 657.91 643.698 677.638 621.686L982.102 281.977C1004.9 256.54 1037.46 242.025 1071.61 242.067L3024.57 244.52Z" fill="#E3E3E3"/>
<path d="M2765.83 453.827C2799.42 453.868 2831.45 467.98 2854.14 492.734L3064.45 722.139C3084.74 744.272 3096 773.206 3096 803.232V1245.66C3096 1275.69 3084.74 1304.62 3064.45 1326.75L2854.26 1556.03C2831.49 1580.86 2799.34 1594.98 2765.66 1594.94L1330.17 1593.17C1296.58 1593.13 1264.55 1579.02 1241.86 1554.27L1031.55 1324.86C1011.26 1302.73 1000 1273.79 1000 1243.77V801.34C1000 771.315 1011.26 742.38 1031.55 720.248L1241.74 490.972C1264.51 466.142 1296.66 452.024 1330.34 452.065L2765.83 453.827Z" fill="#F2F2F2"/>
<path d="M2501.33 692C2538.35 692 2573.3 709.085 2596.03 738.3L2662.7 823.964C2679.1 845.033 2688 870.968 2688 897.665V1150.34C2688 1177.03 2679.1 1202.97 2662.7 1224.04L2596.03 1309.7C2573.3 1338.91 2538.35 1356 2501.33 1356H1594.67C1557.65 1356 1522.7 1338.91 1499.97 1309.7L1433.3 1224.04C1416.9 1202.97 1408 1177.03 1408 1150.34V897.665C1408 870.968 1416.9 845.033 1433.3 823.964L1499.97 738.299C1522.7 709.085 1557.65 692 1594.67 692L2501.33 692Z" fill="white"/>
<rect x="2791" y="984" width="218" height="54" rx="7" fill="#F6F6F6"/>
<path d="M2845.99 1019V1001H2844.58L2844.6 1014.27L2844.65 1016.19L2844.6 1016.22L2843.54 1014.58L2834.54 1001H2832.98V1019H2834.42V1005.42L2834.4 1003.47L2834.45 1003.45L2835.5 1005.08L2844.82 1019H2845.99ZM2852.87 1017.51V1010.24H2860.77V1008.9H2852.87V1002.49H2861.99L2861.92 1001H2851.31V1019H2862.35L2862.42 1017.51H2852.87ZM2879.2 1001H2877.62V1012.5C2877.62 1016.14 2875.94 1017.8 2872.58 1017.8C2869.19 1017.8 2867.51 1016.19 2867.51 1012.5V1001H2865.93V1012.5C2865.93 1017.32 2868.38 1019.34 2872.58 1019.34C2876.75 1019.34 2879.2 1017.32 2879.2 1012.5V1001ZM2885.68 1017.51V1010.24H2893.58V1008.9H2885.68V1002.49H2894.8L2894.73 1001H2884.12V1019H2895.16L2895.24 1017.51H2885.68ZM2917.47 1019L2917.54 1017.49H2907.51L2907.48 1017.42L2908.56 1015.88L2917.52 1002.25V1001H2905.88L2905.8 1002.51H2915.57L2915.6 1002.56L2914.52 1004.12L2905.49 1017.92V1019H2917.47ZM2934.66 1010C2934.66 1003.33 2932.72 1000.71 2927.49 1000.71C2922.28 1000.71 2920.31 1003.33 2920.31 1010C2920.31 1016.67 2922.3 1019.34 2927.49 1019.34C2932.72 1019.34 2934.66 1016.7 2934.66 1010ZM2933.03 1010C2933.03 1016.05 2931.47 1017.8 2927.51 1017.8C2923.53 1017.8 2921.94 1016.05 2921.94 1010C2921.94 1003.93 2923.53 1002.22 2927.49 1002.22C2931.47 1002.22 2933.03 1003.93 2933.03 1010ZM2952 1019V1001H2950.58L2950.61 1014.27L2950.66 1016.19L2950.61 1016.22L2949.55 1014.58L2940.55 1001H2938.99V1019H2940.43V1005.42L2940.41 1003.47L2940.46 1003.45L2941.51 1005.08L2950.82 1019H2952ZM2958.88 1017.51V1010.24H2966.78V1008.9H2958.88V1002.49H2968L2967.93 1001H2957.32V1019H2968.36L2968.43 1017.51H2958.88Z" fill="#375AA5"/>
<rect x="2791" y="984" width="218" height="54" rx="7" stroke="#375AA5" stroke-width="2"/>
<rect x="3180" y="984" width="218" height="54" rx="7" fill="#F6F6F6"/>
<path d="M3233.56 1019V1001H3231.98V1008.85H3222.26V1001H3220.67V1019H3222.26V1010.34H3231.98V1019H3233.56ZM3250.59 1019H3252.37L3245.53 1001H3243.66L3236.82 1019H3238.52L3240.23 1014.25H3248.89L3250.59 1019ZM3244.57 1002.18H3244.64L3245.24 1004.02L3248.39 1012.83H3240.75L3243.95 1004.02L3244.57 1002.18ZM3257.22 1017.46V1001H3255.64V1019H3266.08L3266.15 1017.46H3257.22ZM3278.98 1002.54L3278.95 1001H3266.14L3266.09 1002.54H3271.73V1019H3273.31V1002.54H3278.98ZM3283.66 1017.51V1010.24H3291.56V1008.9H3283.66V1002.49H3292.78L3292.71 1001H3282.1V1019H3293.14L3293.21 1017.51H3283.66ZM3307.78 1019L3307.85 1017.49H3297.82L3297.8 1017.42L3298.88 1015.88L3307.83 1002.25V1001H3296.19L3296.12 1002.51H3305.88L3305.91 1002.56L3304.83 1004.12L3295.8 1017.92V1019H3307.78ZM3324.98 1010C3324.98 1003.33 3323.03 1000.71 3317.8 1000.71C3312.59 1000.71 3310.63 1003.33 3310.63 1010C3310.63 1016.67 3312.62 1019.34 3317.8 1019.34C3323.03 1019.34 3324.98 1016.7 3324.98 1010ZM3323.35 1010C3323.35 1016.05 3321.79 1017.8 3317.83 1017.8C3313.84 1017.8 3312.26 1016.05 3312.26 1010C3312.26 1003.93 3313.84 1002.22 3317.8 1002.22C3321.79 1002.22 3323.35 1003.93 3323.35 1010ZM3342.31 1019V1001H3340.9L3340.92 1014.27L3340.97 1016.19L3340.92 1016.22L3339.86 1014.58L3330.86 1001H3329.3V1019H3330.74V1005.42L3330.72 1003.47L3330.77 1003.45L3331.82 1005.08L3341.14 1019H3342.31ZM3349.19 1017.51V1010.24H3357.09V1008.9H3349.19V1002.49H3358.31L3358.24 1001H3347.63V1019H3358.67L3358.74 1017.51H3349.19Z" fill="#375AA5"/>
<rect x="3180" y="984" width="218" height="54" rx="7" stroke="#375AA5" stroke-width="2"/>
<rect x="3569" y="984" width="218" height="54" rx="7" fill="#F6F6F6"/>
<path d="M3603.1 1001L3599.4 1015.54L3598.97 1017.44H3598.9L3598.49 1015.54L3595.13 1001H3593.5L3597.91 1019H3599.88L3603.53 1004.46L3603.96 1002.54H3604.03L3604.44 1004.46L3608.06 1019H3610.08L3614.47 1001H3612.89L3609.53 1015.52L3609.14 1017.42H3609.07L3608.62 1015.52L3604.92 1001H3603.1ZM3631.47 1001H3629.88V1012.5C3629.88 1016.14 3628.2 1017.8 3624.84 1017.8C3621.46 1017.8 3619.78 1016.19 3619.78 1012.5V1001H3618.19V1012.5C3618.19 1017.32 3620.64 1019.34 3624.84 1019.34C3629.02 1019.34 3631.47 1017.32 3631.47 1012.5V1001ZM3649.4 1019V1001H3647.98L3648.01 1014.27L3648.05 1016.19L3648.01 1016.22L3646.95 1014.58L3637.95 1001H3636.39V1019H3637.83V1005.42L3637.81 1003.47L3637.85 1003.45L3638.91 1005.08L3648.22 1019H3649.4ZM3664.41 1014.03C3664.41 1007.82 3655.15 1009.98 3655.15 1005.39C3655.15 1003.69 3656.33 1002.18 3659.3 1002.18C3660.86 1002.18 3662.18 1002.51 3663.55 1003.09L3663.84 1001.67C3662.57 1001.07 3660.98 1000.71 3659.23 1000.71C3655.37 1000.71 3653.64 1002.78 3653.64 1005.49C3653.64 1011.42 3662.88 1009.3 3662.88 1014.13C3662.88 1016.46 3661.41 1017.85 3658.56 1017.85C3656.66 1017.85 3655.13 1017.37 3653.73 1016.46L3653.45 1017.94C3654.81 1018.78 3656.49 1019.34 3658.56 1019.34C3662.4 1019.34 3664.41 1017.32 3664.41 1014.03ZM3679.04 1001.58C3678.11 1001.12 3676.35 1000.71 3674.84 1000.71C3669.61 1000.71 3667.26 1003.5 3667.26 1009.81C3667.26 1016.43 3669.56 1019.34 3674.79 1019.34C3676.4 1019.34 3678.06 1018.83 3679.14 1018.26L3678.87 1016.89C3677.79 1017.46 3676.5 1017.82 3674.99 1017.82C3670.83 1017.82 3668.89 1015.9 3668.89 1009.81C3668.89 1004.1 3670.81 1002.22 3674.91 1002.22C3676.4 1002.22 3677.84 1002.58 3678.83 1003.04L3679.04 1001.58ZM3695.8 1019V1001H3694.22V1008.85H3684.5V1001H3682.91V1019H3684.5V1010.34H3694.22V1019H3695.8ZM3711.76 1019L3711.83 1017.49H3701.8L3701.77 1017.42L3702.85 1015.88L3711.8 1002.25V1001H3700.16L3700.09 1002.51H3709.86L3709.88 1002.56L3708.8 1004.12L3699.78 1017.92V1019H3711.76ZM3728.95 1010C3728.95 1003.33 3727.01 1000.71 3721.78 1000.71C3716.57 1000.71 3714.6 1003.33 3714.6 1010C3714.6 1016.67 3716.59 1019.34 3721.78 1019.34C3727.01 1019.34 3728.95 1016.7 3728.95 1010ZM3727.32 1010C3727.32 1016.05 3725.76 1017.8 3721.8 1017.8C3717.82 1017.8 3716.23 1016.05 3716.23 1010C3716.23 1003.93 3717.82 1002.22 3721.78 1002.22C3725.76 1002.22 3727.32 1003.93 3727.32 1010ZM3746.29 1019V1001H3744.87L3744.9 1014.27L3744.95 1016.19L3744.9 1016.22L3743.84 1014.58L3734.84 1001H3733.28V1019H3734.72V1005.42L3734.7 1003.47L3734.75 1003.45L3735.8 1005.08L3745.11 1019H3746.29ZM3753.17 1017.51V1010.24H3761.07V1008.9H3753.17V1002.49H3762.29L3762.22 1001H3751.61V1019H3762.65L3762.72 1017.51H3753.17Z" fill="#375AA5"/>
<rect x="3569" y="984" width="218" height="54" rx="7" stroke="#375AA5" stroke-width="2"/>
<rect x="1957" y="983" width="218" height="54" rx="7" fill="#F6F6F6"/>
<path d="M2008.08 1018V1000H2006.49V1007.85H1996.77V1000H1995.19V1018H1996.77V1009.34H2006.49V1018H2008.08ZM2025.11 1018H2026.89L2020.05 1000H2018.17L2011.33 1018H2013.04L2014.74 1013.25H2023.41L2025.11 1018ZM2019.09 1001.18H2019.16L2019.76 1003.02L2022.9 1011.83H2015.27L2018.46 1003.02L2019.09 1001.18ZM2042.48 1000H2040.9V1011.5C2040.9 1015.14 2039.22 1016.8 2035.86 1016.8C2032.47 1016.8 2030.79 1015.19 2030.79 1011.5V1000H2029.21V1011.5C2029.21 1016.32 2031.66 1018.34 2035.86 1018.34C2040.03 1018.34 2042.48 1016.32 2042.48 1011.5V1000ZM2059 1005.35C2059 1001.58 2057.22 1000 2053.14 1000H2047.41V1018H2048.99V1010.73H2053.14C2057.27 1010.73 2059 1008.98 2059 1005.35ZM2057.39 1005.35C2057.39 1008.4 2055.95 1009.36 2053.14 1009.36H2048.99V1001.42H2053.14C2056.02 1001.42 2057.39 1002.47 2057.39 1005.35ZM2073.51 1001.54L2073.48 1000H2060.67L2060.62 1001.54H2066.26V1018H2067.84V1001.54H2073.51ZM2087.26 1018L2087.34 1016.49H2077.3L2077.28 1016.42L2078.36 1014.88L2087.31 1001.25V1000H2075.67L2075.6 1001.51H2085.37L2085.39 1001.56L2084.31 1003.12L2075.29 1016.92V1018H2087.26ZM2104.46 1009C2104.46 1002.33 2102.52 999.712 2097.29 999.712C2092.08 999.712 2090.11 1002.33 2090.11 1009C2090.11 1015.67 2092.1 1018.34 2097.29 1018.34C2102.52 1018.34 2104.46 1015.7 2104.46 1009ZM2102.83 1009C2102.83 1015.05 2101.27 1016.8 2097.31 1016.8C2093.33 1016.8 2091.74 1015.05 2091.74 1009C2091.74 1002.93 2093.33 1001.22 2097.29 1001.22C2101.27 1001.22 2102.83 1002.93 2102.83 1009ZM2121.8 1018V1000H2120.38L2120.41 1013.27L2120.45 1015.19L2120.41 1015.22L2119.35 1013.58L2110.35 1000H2108.79V1018H2110.23V1004.42L2110.21 1002.47L2110.25 1002.45L2111.31 1004.08L2120.62 1018H2121.8ZM2128.68 1016.51V1009.24H2136.57V1007.9H2128.68V1001.49H2137.8L2137.73 1000H2127.12V1018H2138.16L2138.23 1016.51H2128.68Z" fill="#375AA5"/>
<rect x="1957" y="983" width="218" height="54" rx="7" stroke="#375AA5" stroke-width="2"/>
<rect x="1957" y="535" width="218" height="54" rx="7" fill="#F6F6F6"/>
<path d="M2011.99 570V552H2010.58L2010.6 565.272L2010.65 567.192L2010.6 567.216L2009.54 565.584L2000.54 552H1998.98V570H2000.42V556.416L2000.4 554.472L2000.45 554.448L2001.5 556.08L2010.82 570H2011.99ZM2018.87 568.512V561.24H2026.77V559.896H2018.87V553.488H2027.99L2027.92 552H2017.31V570H2028.35L2028.42 568.512H2018.87ZM2045.2 552H2043.62V563.496C2043.62 567.144 2041.94 568.8 2038.58 568.8C2035.19 568.8 2033.51 567.192 2033.51 563.496V552H2031.93V563.496C2031.93 568.32 2034.38 570.336 2038.58 570.336C2042.75 570.336 2045.2 568.32 2045.2 563.496V552ZM2051.68 568.512V561.24H2059.58V559.896H2051.68V553.488H2060.8L2060.73 552H2050.12V570H2061.16L2061.24 568.512H2051.68ZM2083.47 570L2083.54 568.488H2073.51L2073.48 568.416L2074.56 566.88L2083.52 553.248V552H2071.88L2071.8 553.512H2081.57L2081.6 553.56L2080.52 555.12L2071.49 568.92V570H2083.47ZM2100.66 561C2100.66 554.328 2098.72 551.712 2093.49 551.712C2088.28 551.712 2086.31 554.328 2086.31 561C2086.31 567.672 2088.3 570.336 2093.49 570.336C2098.72 570.336 2100.66 567.696 2100.66 561ZM2099.03 561C2099.03 567.048 2097.47 568.8 2093.51 568.8C2089.53 568.8 2087.94 567.048 2087.94 561C2087.94 554.928 2089.53 553.224 2093.49 553.224C2097.47 553.224 2099.03 554.928 2099.03 561ZM2118 570V552H2116.58L2116.61 565.272L2116.66 567.192L2116.61 567.216L2115.55 565.584L2106.55 552H2104.99V570H2106.43V556.416L2106.41 554.472L2106.46 554.448L2107.51 556.08L2116.82 570H2118ZM2124.88 568.512V561.24H2132.78V559.896H2124.88V553.488H2134L2133.93 552H2123.32V570H2134.36L2134.43 568.512H2124.88Z" fill="#375AA5"/>
<rect x="1957" y="535" width="218" height="54" rx="7" stroke="#375AA5" stroke-width="2"/>
<rect x="1957" y="309" width="218" height="54" rx="7" fill="#F6F6F6"/>
<path d="M2010.56 344V326H2008.98V333.848H1999.26V326H1997.67V344H1999.26V335.336H2008.98V344H2010.56ZM2027.59 344H2029.37L2022.53 326H2020.66L2013.82 344H2015.52L2017.23 339.248H2025.89L2027.59 344ZM2021.57 327.176H2021.64L2022.24 329.024L2025.39 337.832H2017.75L2020.95 329.024L2021.57 327.176ZM2034.22 342.464V326H2032.64V344H2043.08L2043.15 342.464H2034.22ZM2055.98 327.536L2055.95 326H2043.14L2043.09 327.536H2048.73V344H2050.31V327.536H2055.98ZM2060.66 342.512V335.24H2068.56V333.896H2060.66V327.488H2069.78L2069.71 326H2059.1V344H2070.14L2070.21 342.512H2060.66ZM2084.78 344L2084.85 342.488H2074.82L2074.8 342.416L2075.88 340.88L2084.83 327.248V326H2073.19L2073.12 327.512H2082.88L2082.91 327.56L2081.83 329.12L2072.8 342.92V344H2084.78ZM2101.98 335C2101.98 328.328 2100.03 325.712 2094.8 325.712C2089.59 325.712 2087.63 328.328 2087.63 335C2087.63 341.672 2089.62 344.336 2094.8 344.336C2100.03 344.336 2101.98 341.696 2101.98 335ZM2100.35 335C2100.35 341.048 2098.79 342.8 2094.83 342.8C2090.84 342.8 2089.26 341.048 2089.26 335C2089.26 328.928 2090.84 327.224 2094.8 327.224C2098.79 327.224 2100.35 328.928 2100.35 335ZM2119.31 344V326H2117.9L2117.92 339.272L2117.97 341.192L2117.92 341.216L2116.86 339.584L2107.86 326H2106.3V344H2107.74V330.416L2107.72 328.472L2107.77 328.448L2108.82 330.08L2118.14 344H2119.31ZM2126.19 342.512V335.24H2134.09V333.896H2126.19V327.488H2135.31L2135.24 326H2124.63V344H2135.67L2135.74 342.512H2126.19Z" fill="#375AA5"/>
<rect x="1957" y="309" width="218" height="54" rx="7" stroke="#375AA5" stroke-width="2"/>
<rect x="1957" y="87" width="218" height="54" rx="7" fill="#F6F6F6"/>
<path d="M1991.1 104L1987.4 118.544L1986.97 120.44H1986.9L1986.49 118.544L1983.13 104H1981.5L1985.91 122H1987.88L1991.53 107.456L1991.96 105.536H1992.03L1992.44 107.456L1996.06 122H1998.08L2002.47 104H2000.89L1997.53 118.52L1997.14 120.416H1997.07L1996.62 118.52L1992.92 104H1991.1ZM2019.47 104H2017.88V115.496C2017.88 119.144 2016.2 120.8 2012.84 120.8C2009.46 120.8 2007.78 119.192 2007.78 115.496V104H2006.19V115.496C2006.19 120.32 2008.64 122.336 2012.84 122.336C2017.02 122.336 2019.47 120.32 2019.47 115.496V104ZM2037.4 122V104H2035.98L2036.01 117.272L2036.05 119.192L2036.01 119.216L2034.95 117.584L2025.95 104H2024.39V122H2025.83V108.416L2025.81 106.472L2025.85 106.448L2026.91 108.08L2036.22 122H2037.4ZM2052.41 117.032C2052.41 110.816 2043.15 112.976 2043.15 108.392C2043.15 106.688 2044.33 105.176 2047.3 105.176C2048.86 105.176 2050.18 105.512 2051.55 106.088L2051.84 104.672C2050.57 104.072 2048.98 103.712 2047.23 103.712C2043.37 103.712 2041.64 105.776 2041.64 108.488C2041.64 114.416 2050.88 112.304 2050.88 117.128C2050.88 119.456 2049.41 120.848 2046.56 120.848C2044.66 120.848 2043.13 120.368 2041.73 119.456L2041.45 120.944C2042.81 121.784 2044.49 122.336 2046.56 122.336C2050.4 122.336 2052.41 120.32 2052.41 117.032ZM2067.04 104.576C2066.11 104.12 2064.35 103.712 2062.84 103.712C2057.61 103.712 2055.26 106.496 2055.26 112.808C2055.26 119.432 2057.56 122.336 2062.79 122.336C2064.4 122.336 2066.06 121.832 2067.14 121.256L2066.87 119.888C2065.79 120.464 2064.5 120.824 2062.99 120.824C2058.83 120.824 2056.89 118.904 2056.89 112.808C2056.89 107.096 2058.81 105.224 2062.91 105.224C2064.4 105.224 2065.84 105.584 2066.83 106.04L2067.04 104.576ZM2083.8 122V104H2082.22V111.848H2072.5V104H2070.91V122H2072.5V113.336H2082.22V122H2083.8ZM2099.76 122L2099.83 120.488H2089.8L2089.77 120.416L2090.85 118.88L2099.8 105.248V104H2088.16L2088.09 105.512H2097.86L2097.88 105.56L2096.8 107.12L2087.78 120.92V122H2099.76ZM2116.95 113C2116.95 106.328 2115.01 103.712 2109.78 103.712C2104.57 103.712 2102.6 106.328 2102.6 113C2102.6 119.672 2104.59 122.336 2109.78 122.336C2115.01 122.336 2116.95 119.696 2116.95 113ZM2115.32 113C2115.32 119.048 2113.76 120.8 2109.8 120.8C2105.82 120.8 2104.23 119.048 2104.23 113C2104.23 106.928 2105.82 105.224 2109.78 105.224C2113.76 105.224 2115.32 106.928 2115.32 113ZM2134.29 122V104H2132.87L2132.9 117.272L2132.95 119.192L2132.9 119.216L2131.84 117.584L2122.84 104H2121.28V122H2122.72V108.416L2122.7 106.472L2122.75 106.448L2123.8 108.08L2133.11 122H2134.29ZM2141.17 120.512V113.24H2149.07V111.896H2141.17V105.488H2150.29L2150.22 104H2139.61V122H2150.65L2150.72 120.512H2141.17Z" fill="#375AA5"/>
<rect x="1957" y="87" width="218" height="54" rx="7" stroke="#375AA5" stroke-width="2"/>
<path d="M2575 764H2564.16C2537.62 764 2516.11 785.542 2516.16 812.085L2516.8 1173.79C2516.91 1235.73 2466.73 1286 2404.79 1285.99L1577.5 1285.91C1555.41 1285.91 1537.5 1268 1537.5 1245.91V1098.17C1537.5 1076.08 1519.59 1058.17 1497.5 1058.17H1431" stroke="white" stroke-width="40" stroke-linecap="round" stroke-linejoin="round"/>
<path d="M4013 126H3672C3645.49 126 3624 147.49 3624 174V314C3624 340.51 3602.51 362 3576 362H3287.01C3260.5 362 3239 383.496 3239.01 410.009L3239.07 715.991C3239.07 742.504 3217.58 764 3191.07 764H2564.16C2537.62 764 2516.11 785.542 2516.16 812.085L2516.94 1253.94C2516.97 1271.64 2502.64 1286 2484.94 1286L1598.49 1285.91C1563.15 1285.91 1534.5 1257.25 1534.5 1221.91V1098.15C1534.5 1076.07 1516.6 1058.16 1494.51 1058.15L963.013 1058.01C936.498 1058.01 915 1079.5 915 1106.01V1278C915 1304.51 893.51 1326 867 1326H502.5C475.99 1326 454.5 1304.51 454.5 1278V1224C454.5 1197.49 433.01 1176 406.5 1176H174" stroke="#41B496" stroke-width="24" stroke-linecap="round" stroke-linejoin="round"/>
<rect x="3771" y="114" width="261" height="72" rx="4" fill="#41B496"/>
<path d="M3819.54 163V136H3813.49V146.476H3804.06V136H3797.97V163H3804.06V151.948H3813.49V163H3819.54ZM3841.57 163H3848.34L3838.91 136H3831.67L3822.35 163H3828.76L3830.27 157.744H3840.06L3841.57 163ZM3835.2 140.572H3835.31L3836.03 143.416L3838.62 152.668H3831.75L3834.45 143.416L3835.2 140.572ZM3871.07 144.388C3871.07 138.628 3867.72 136 3861.03 136H3851.13V163H3857.21V152.92H3861.03L3865.74 163H3872.84L3866.54 151.732C3869.45 150.832 3871.07 148.168 3871.07 144.388ZM3864.74 144.64C3864.74 147.556 3863.66 148.384 3860.96 148.384H3857.21V141.04H3861.06C3863.73 141.04 3864.74 141.904 3864.74 144.64ZM3897.85 149.392C3897.85 140.068 3894.28 136 3885.71 136H3875.6V163H3885.79C3893.78 163 3897.85 159.148 3897.85 149.392ZM3891.47 149.356C3891.47 156.268 3889.82 157.6 3885.68 157.6H3881.68V141.436H3885.64C3889.93 141.436 3891.47 142.948 3891.47 149.356ZM3914.19 136L3910.37 154.324L3909.87 157.168H3909.76L3909.29 154.288L3905.91 136H3899.61L3905.98 163H3913.25L3916.78 144.964L3917.28 142.048H3917.39L3917.89 144.928L3921.46 163H3928.73L3935.1 136H3929.09L3925.71 154.108L3925.24 156.988H3925.13L3924.59 154.144L3920.77 136H3914.19ZM3953.83 163H3960.6L3951.16 136H3943.93L3934.6 163H3941.01L3942.52 157.744H3952.32L3953.83 163ZM3947.46 140.572H3947.56L3948.28 143.416L3950.88 152.668H3944L3946.7 143.416L3947.46 140.572ZM3983.33 144.388C3983.33 138.628 3979.98 136 3973.28 136H3963.38V163H3969.47V152.92H3973.28L3978 163H3985.09L3978.79 151.732C3981.71 150.832 3983.33 148.168 3983.33 144.388ZM3976.99 144.64C3976.99 147.556 3975.91 148.384 3973.21 148.384H3969.47V141.04H3973.32C3975.98 141.04 3976.99 141.904 3976.99 144.64ZM3993.93 157.708V151.552H4003.91V146.728H3993.93V141.364H4005.78L4005.67 136H3987.85V163H4006.21L4006.35 157.708H3993.93Z" fill="white"/>
<rect x="133" y="1116" width="261" height="72" rx="4" fill="#41B496"/>
<path d="M181.536 1165V1138H175.488V1148.48H166.056V1138H159.972V1165H166.056V1153.95H175.488V1165H181.536ZM203.575 1165H210.343L200.911 1138H193.675L184.351 1165H190.759L192.271 1159.74H202.063L203.575 1165ZM197.203 1142.57H197.311L198.031 1145.42L200.623 1154.67H193.747L196.447 1145.42L197.203 1142.57ZM233.072 1146.39C233.072 1140.63 229.724 1138 223.028 1138H213.128V1165H219.212V1154.92H223.028L227.744 1165H234.836L228.536 1153.73C231.452 1152.83 233.072 1150.17 233.072 1146.39ZM226.736 1146.64C226.736 1149.56 225.656 1150.38 222.956 1150.38H219.212V1143.04H223.064C225.728 1143.04 226.736 1143.9 226.736 1146.64ZM259.845 1151.39C259.845 1142.07 256.281 1138 247.713 1138H237.597V1165H247.785C255.777 1165 259.845 1161.15 259.845 1151.39ZM253.473 1151.36C253.473 1158.27 251.817 1159.6 247.677 1159.6H243.681V1143.44H247.641C251.925 1143.44 253.473 1144.95 253.473 1151.36ZM276.185 1138L272.369 1156.32L271.865 1159.17H271.757L271.289 1156.29L267.905 1138H261.605L267.977 1165H275.249L278.777 1146.96L279.281 1144.05H279.389L279.893 1146.93L283.457 1165H290.729L297.101 1138H291.089L287.705 1156.11L287.237 1158.99H287.129L286.589 1156.14L282.773 1138H276.185ZM315.829 1165H322.597L313.165 1138H305.929L296.605 1165H303.013L304.525 1159.74H314.317L315.829 1165ZM309.457 1142.57H309.565L310.285 1145.42L312.877 1154.67H306.001L308.701 1145.42L309.457 1142.57ZM345.326 1146.39C345.326 1140.63 341.978 1138 335.282 1138H325.382V1165H331.466V1154.92H335.282L339.998 1165H347.09L340.79 1153.73C343.706 1152.83 345.326 1150.17 345.326 1146.39ZM338.99 1146.64C338.99 1149.56 337.91 1150.38 335.21 1150.38H331.466V1143.04H335.318C337.982 1143.04 338.99 1143.9 338.99 1146.64ZM355.935 1159.71V1153.55H365.907V1148.73H355.935V1143.36H367.779L367.671 1138H349.851V1165H368.211L368.355 1159.71H355.935Z" fill="white"/>
<path d="M1614 1330V803.5C1614 776.99 1635.49 755.5 1662 755.5H2454C2477.2 755.5 2496 736.696 2496 713.5V713.5" stroke="white" stroke-width="40" stroke-linecap="round" stroke-linejoin="round"/>
<path d="M195 1797H662C688.51 1797 710 1775.51 710 1749V1663.5C710 1636.99 731.49 1615.5 758 1615.5H1288C1314.51 1615.5 1336 1594.01 1336 1567.5V1378C1336 1351.49 1357.49 1330 1384 1330H1590C1603.25 1330 1614 1319.25 1614 1306V803.5C1614 776.99 1635.49 755.5 1662 755.5H2448C2474.51 755.5 2496 734.01 2496 707.5V456.5C2496 429.99 2474.51 408.5 2448 408.5H2320C2293.49 408.5 2272 387.01 2272 360.5V134" stroke="#E60032" stroke-width="24" stroke-linecap="round" stroke-linejoin="round"/>
<rect x="125" y="1737" width="516" height="72" rx="4" fill="#E60032"/>
<path d="M172.14 1768.25C172.14 1761.95 169.08 1759 161.592 1759H151.908V1786H157.992V1777.22H161.592C169.116 1777.22 172.14 1773.94 172.14 1768.25ZM165.876 1768.22C165.876 1771.6 164.58 1772.36 161.592 1772.36H157.992V1764.08H161.592C164.724 1764.08 165.876 1764.98 165.876 1768.22ZM195.758 1767.39C195.758 1761.63 192.41 1759 185.714 1759H175.814V1786H181.898V1775.92H185.714L190.43 1786H197.522L191.222 1774.73C194.138 1773.83 195.758 1771.17 195.758 1767.39ZM189.422 1767.64C189.422 1770.56 188.342 1771.38 185.642 1771.38H181.898V1764.04H185.75C188.414 1764.04 189.422 1764.9 189.422 1767.64ZM222.614 1772.5C222.614 1762.89 219.194 1758.57 210.734 1758.57C202.31 1758.57 198.818 1762.89 198.818 1772.5C198.818 1782.11 202.418 1786.5 210.734 1786.5C219.194 1786.5 222.614 1782.29 222.614 1772.5ZM216.278 1772.5C216.278 1779.3 214.838 1781.07 210.77 1781.07C206.666 1781.07 205.19 1779.34 205.19 1772.5C205.19 1765.66 206.63 1764 210.734 1764C214.874 1764 216.278 1765.66 216.278 1772.5ZM246.663 1771.49H241.299V1780.71C240.435 1780.96 239.463 1781.07 238.419 1781.07C233.703 1781.07 232.119 1779.2 232.119 1772.46C232.119 1765.8 233.775 1763.86 239.103 1763.86C241.335 1763.86 243.747 1764.29 245.655 1765.01L246.231 1759.76C244.179 1759 241.335 1758.53 238.779 1758.53C229.671 1758.53 225.747 1763.1 225.747 1772.54C225.747 1781.79 229.347 1786.5 238.563 1786.5C241.515 1786.5 244.647 1785.93 246.663 1784.99V1771.49ZM270.992 1767.39C270.992 1761.63 267.644 1759 260.948 1759H251.048V1786H257.132V1775.92H260.948L265.664 1786H272.756L266.456 1774.73C269.372 1773.83 270.992 1771.17 270.992 1767.39ZM264.656 1767.64C264.656 1770.56 263.576 1771.38 260.876 1771.38H257.132V1764.04H260.984C263.648 1764.04 264.656 1764.9 264.656 1767.64ZM292.401 1786H299.169L289.737 1759H282.501L273.177 1786H279.585L281.097 1780.74H290.889L292.401 1786ZM286.029 1763.57H286.137L286.857 1766.42L289.449 1775.67H282.573L285.273 1766.42L286.029 1763.57ZM301.954 1759V1786H307.318V1772.28L307.282 1769.37L307.354 1769.33L308.362 1772.07L313.87 1786H317.902L323.446 1772.03L324.454 1769.3L324.562 1769.33L324.49 1772.25V1786H330.034V1759H323.338L317.038 1774.77L316.03 1777.47H315.922L314.914 1774.77L308.65 1759H301.954ZM335.142 1759V1786H340.506V1772.28L340.47 1769.37L340.542 1769.33L341.55 1772.07L347.058 1786H351.09L356.634 1772.03L357.642 1769.3L357.75 1769.33L357.678 1772.25V1786H363.222V1759H356.526L350.226 1774.77L349.218 1777.47H349.11L348.102 1774.77L341.838 1759H335.142ZM368.725 1786H374.917V1759H368.725V1786ZM386.507 1780.71V1774.55H396.479V1769.73H386.507V1764.36H398.351L398.243 1759H380.423V1786H398.783L398.927 1780.71H386.507ZM422.656 1767.39C422.656 1761.63 419.308 1759 412.612 1759H402.712V1786H408.796V1775.92H412.612L417.328 1786H424.42L418.12 1774.73C421.036 1773.83 422.656 1771.17 422.656 1767.39ZM416.32 1767.64C416.32 1770.56 415.24 1771.38 412.54 1771.38H408.796V1764.04H412.648C415.312 1764.04 416.32 1764.9 416.32 1767.64ZM444.389 1777.9C444.389 1768.76 431.969 1770.7 431.969 1766.49C431.969 1765.05 432.869 1763.9 436.217 1763.9C438.269 1763.9 440.501 1764.33 442.733 1765.05L443.489 1759.94C441.401 1759.07 438.557 1758.53 435.929 1758.53C429.089 1758.53 426.137 1762.24 426.137 1766.81C426.137 1775.85 438.557 1774.05 438.557 1778.3C438.557 1780.17 437.261 1781.25 434.309 1781.25C431.645 1781.25 429.197 1780.53 426.821 1779.27L426.029 1784.49C428.369 1785.75 431.249 1786.5 434.381 1786.5C440.681 1786.5 444.389 1783.23 444.389 1777.9ZM468.226 1768.25C468.226 1761.95 465.166 1759 457.678 1759H447.994V1786H454.078V1777.22H457.678C465.202 1777.22 468.226 1773.94 468.226 1768.25ZM461.962 1768.22C461.962 1771.6 460.666 1772.36 457.678 1772.36H454.078V1764.08H457.678C460.81 1764.08 461.962 1764.98 461.962 1768.22ZM491.844 1767.39C491.844 1761.63 488.496 1759 481.8 1759H471.9V1786H477.984V1775.92H481.8L486.516 1786H493.608L487.308 1774.73C490.224 1773.83 491.844 1771.17 491.844 1767.39ZM485.508 1767.64C485.508 1770.56 484.428 1771.38 481.728 1771.38H477.984V1764.04H481.836C484.5 1764.04 485.508 1764.9 485.508 1767.64ZM513.253 1786H520.021L510.589 1759H503.353L494.029 1786H500.437L501.949 1780.74H511.741L513.253 1786ZM506.881 1763.57H506.989L507.709 1766.42L510.301 1775.67H503.425L506.125 1766.42L506.881 1763.57ZM539.606 1759.65C538.058 1759.04 535.502 1758.53 533.342 1758.53C524.702 1758.53 520.814 1763.32 520.814 1772.32C520.814 1781.97 524.774 1786.5 532.946 1786.5C535.322 1786.5 537.914 1785.89 539.678 1785.03L539.066 1780.1C537.554 1780.74 535.79 1781.14 533.81 1781.14C528.878 1781.14 527.186 1779.12 527.186 1772.36C527.186 1765.95 528.806 1763.97 533.702 1763.97C535.718 1763.97 537.59 1764.33 538.994 1764.87L539.606 1759.65ZM564.866 1786V1759H558.818V1769.48H549.386V1759H543.302V1786H549.386V1774.95H558.818V1786H564.866ZM576.105 1780.71V1774.55H586.077V1769.73H576.105V1764.36H587.949L587.841 1759H570.021V1786H588.381L588.525 1780.71H576.105ZM614.09 1786V1759H608.726V1772.43L608.798 1775.31L608.726 1775.34L607.106 1772.93L597.494 1759H592.31V1786H597.71V1771.82L597.674 1768.9L597.746 1768.86L599.366 1771.28L609.842 1786H614.09Z" fill="white"/>
<rect x="2260" y="62" width="516" height="72" rx="4" fill="#E60032"/>
<path d="M2307.14 93.252C2307.14 86.952 2304.08 84 2296.59 84H2286.91V111H2292.99V102.216H2296.59C2304.12 102.216 2307.14 98.94 2307.14 93.252ZM2300.88 93.216C2300.88 96.6 2299.58 97.356 2296.59 97.356H2292.99V89.076H2296.59C2299.72 89.076 2300.88 89.976 2300.88 93.216ZM2330.76 92.388C2330.76 86.628 2327.41 84 2320.71 84H2310.81V111H2316.9V100.92H2320.71L2325.43 111H2332.52L2326.22 99.732C2329.14 98.832 2330.76 96.168 2330.76 92.388ZM2324.42 92.64C2324.42 95.556 2323.34 96.384 2320.64 96.384H2316.9V89.04H2320.75C2323.41 89.04 2324.42 89.904 2324.42 92.64ZM2357.61 97.5C2357.61 87.888 2354.19 83.568 2345.73 83.568C2337.31 83.568 2333.82 87.888 2333.82 97.5C2333.82 107.112 2337.42 111.504 2345.73 111.504C2354.19 111.504 2357.61 107.292 2357.61 97.5ZM2351.28 97.5C2351.28 104.304 2349.84 106.068 2345.77 106.068C2341.67 106.068 2340.19 104.34 2340.19 97.5C2340.19 90.66 2341.63 89.004 2345.73 89.004C2349.87 89.004 2351.28 90.66 2351.28 97.5ZM2381.66 96.492H2376.3V105.708C2375.44 105.96 2374.46 106.068 2373.42 106.068C2368.7 106.068 2367.12 104.196 2367.12 97.464C2367.12 90.804 2368.78 88.86 2374.1 88.86C2376.34 88.86 2378.75 89.292 2380.66 90.012L2381.23 84.756C2379.18 84 2376.34 83.532 2373.78 83.532C2364.67 83.532 2360.75 88.104 2360.75 97.536C2360.75 106.788 2364.35 111.504 2373.56 111.504C2376.52 111.504 2379.65 110.928 2381.66 109.992V96.492ZM2405.99 92.388C2405.99 86.628 2402.64 84 2395.95 84H2386.05V111H2392.13V100.92H2395.95L2400.66 111H2407.76L2401.46 99.732C2404.37 98.832 2405.99 96.168 2405.99 92.388ZM2399.66 92.64C2399.66 95.556 2398.58 96.384 2395.88 96.384H2392.13V89.04H2395.98C2398.65 89.04 2399.66 89.904 2399.66 92.64ZM2427.4 111H2434.17L2424.74 84H2417.5L2408.18 111H2414.58L2416.1 105.744H2425.89L2427.4 111ZM2421.03 88.572H2421.14L2421.86 91.416L2424.45 100.668H2417.57L2420.27 91.416L2421.03 88.572ZM2436.95 84V111H2442.32V97.284L2442.28 94.368L2442.35 94.332L2443.36 97.068L2448.87 111H2452.9L2458.45 97.032L2459.45 94.296L2459.56 94.332L2459.49 97.248V111H2465.03V84H2458.34L2452.04 99.768L2451.03 102.468H2450.92L2449.91 99.768L2443.65 84H2436.95ZM2470.14 84V111H2475.51V97.284L2475.47 94.368L2475.54 94.332L2476.55 97.068L2482.06 111H2486.09L2491.63 97.032L2492.64 94.296L2492.75 94.332L2492.68 97.248V111H2498.22V84H2491.53L2485.23 99.768L2484.22 102.468H2484.11L2483.1 99.768L2476.84 84H2470.14ZM2503.73 111H2509.92V84H2503.73V111ZM2521.51 105.708V99.552H2531.48V94.728H2521.51V89.364H2533.35L2533.24 84H2515.42V111H2533.78L2533.93 105.708H2521.51ZM2557.66 92.388C2557.66 86.628 2554.31 84 2547.61 84H2537.71V111H2543.8V100.92H2547.61L2552.33 111H2559.42L2553.12 99.732C2556.04 98.832 2557.66 96.168 2557.66 92.388ZM2551.32 92.64C2551.32 95.556 2550.24 96.384 2547.54 96.384H2543.8V89.04H2547.65C2550.31 89.04 2551.32 89.904 2551.32 92.64ZM2579.39 102.9C2579.39 93.756 2566.97 95.7 2566.97 91.488C2566.97 90.048 2567.87 88.896 2571.22 88.896C2573.27 88.896 2575.5 89.328 2577.73 90.048L2578.49 84.936C2576.4 84.072 2573.56 83.532 2570.93 83.532C2564.09 83.532 2561.14 87.24 2561.14 91.812C2561.14 100.848 2573.56 99.048 2573.56 103.296C2573.56 105.168 2572.26 106.248 2569.31 106.248C2566.65 106.248 2564.2 105.528 2561.82 104.268L2561.03 109.488C2563.37 110.748 2566.25 111.504 2569.38 111.504C2575.68 111.504 2579.39 108.228 2579.39 102.9ZM2603.23 93.252C2603.23 86.952 2600.17 84 2592.68 84H2582.99V111H2589.08V102.216H2592.68C2600.2 102.216 2603.23 98.94 2603.23 93.252ZM2596.96 93.216C2596.96 96.6 2595.67 97.356 2592.68 97.356H2589.08V89.076H2592.68C2595.81 89.076 2596.96 89.976 2596.96 93.216ZM2626.84 92.388C2626.84 86.628 2623.5 84 2616.8 84H2606.9V111H2612.98V100.92H2616.8L2621.52 111H2628.61L2622.31 99.732C2625.22 98.832 2626.84 96.168 2626.84 92.388ZM2620.51 92.64C2620.51 95.556 2619.43 96.384 2616.73 96.384H2612.98V89.04H2616.84C2619.5 89.04 2620.51 89.904 2620.51 92.64ZM2648.25 111H2655.02L2645.59 84H2638.35L2629.03 111H2635.44L2636.95 105.744H2646.74L2648.25 111ZM2641.88 88.572H2641.99L2642.71 91.416L2645.3 100.668H2638.42L2641.12 91.416L2641.88 88.572ZM2674.61 84.648C2673.06 84.036 2670.5 83.532 2668.34 83.532C2659.7 83.532 2655.81 88.32 2655.81 97.32C2655.81 106.968 2659.77 111.504 2667.95 111.504C2670.32 111.504 2672.91 110.892 2674.68 110.028L2674.07 105.096C2672.55 105.744 2670.79 106.14 2668.81 106.14C2663.88 106.14 2662.19 104.124 2662.19 97.356C2662.19 90.948 2663.81 88.968 2668.7 88.968C2670.72 88.968 2672.59 89.328 2673.99 89.868L2674.61 84.648ZM2699.87 111V84H2693.82V94.476H2684.39V84H2678.3V111H2684.39V99.948H2693.82V111H2699.87ZM2711.1 105.708V99.552H2721.08V94.728H2711.1V89.364H2722.95L2722.84 84H2705.02V111H2723.38L2723.52 105.708H2711.1ZM2749.09 111V84H2743.73V97.428L2743.8 100.308L2743.73 100.344L2742.11 97.932L2732.49 84H2727.31V111H2732.71V96.816L2732.67 93.9L2732.75 93.864L2734.37 96.276L2744.84 111H2749.09Z" fill="white"/>
<path d="M2606.5 1246H1604.61C1586.89 1246 1572.55 1231.61 1572.61 1213.89L1573.89 823.894C1573.95 806.263 1588.26 792 1605.89 792H1805.16C1827.58 792 1845.62 773.583 1845.16 751.173L1844.5 719.5" stroke="white" stroke-width="40" stroke-linecap="round" stroke-linejoin="round"/>
<path fill-rule="evenodd" clip-rule="evenodd" d="M1864.5 719.086C1864.27 708.043 1855.13 699.276 1844.09 699.504C1833.04 699.733 1824.28 708.87 1824.5 719.914L1825.16 751.586C1825.39 762.792 1816.37 772 1805.16 772H1605.89C1577.24 772 1553.99 795.177 1553.89 823.828L1553.86 833H1593.86L1593.89 823.96C1593.92 817.349 1599.28 812 1605.89 812H1805.16C1838.79 812 1865.85 784.375 1865.15 750.759L1864.5 719.086ZM1624 1226V1227H1554.24C1560.01 1249.42 1580.37 1266 1604.61 1266H2606.5C2617.55 1266 2626.5 1257.05 2626.5 1246C2626.5 1234.95 2617.55 1226 2606.5 1226H1624Z" fill="white"/>
<path d="M3969.5 1865.5H2959C2932.49 1865.5 2911 1844.01 2911 1817.5V1726C2911 1699.49 2889.51 1678 2863 1678H2677C2650.49 1678 2629 1656.51 2629 1630V1294C2629 1267.49 2607.51 1246 2581 1246H1606C1588.33 1246 1574 1231.67 1574 1214V823.735C1574 806.062 1588.33 791.735 1606 791.735H1804.5C1826.59 791.735 1844.5 773.827 1844.5 751.735V148C1844.5 121.49 1823.01 100 1796.5 100H1661.5" stroke="#375AA5" stroke-width="24" stroke-linecap="round" stroke-linejoin="round"/>/>/>/>/>/>/>/>
<rect x="3676" y="1805" width="311" height="72" rx="4" fill="#375AA5"/>
<path d="M3720.76 1832.47L3720.66 1827H3702.87V1854H3708.92V1843.49H3718.71L3718.78 1838.3H3708.92V1832.47H3720.76ZM3744.08 1835.39C3744.08 1829.63 3740.74 1827 3734.04 1827H3724.14V1854H3730.22V1843.92H3734.04L3738.76 1854H3745.85L3739.55 1842.73C3742.46 1841.83 3744.08 1839.17 3744.08 1835.39ZM3737.75 1835.64C3737.75 1838.56 3736.67 1839.38 3733.97 1839.38H3730.22V1832.04H3734.08C3736.74 1832.04 3737.75 1832.9 3737.75 1835.64ZM3765.49 1854H3772.26L3762.83 1827H3755.59L3746.27 1854H3752.68L3754.19 1848.74H3763.98L3765.49 1854ZM3759.12 1831.57H3759.23L3759.95 1834.42L3762.54 1843.67H3755.66L3758.36 1834.42L3759.12 1831.57ZM3775.05 1827V1854H3780.41V1840.28L3780.37 1837.37L3780.45 1837.33L3781.45 1840.07L3786.96 1854H3790.99L3796.54 1840.03L3797.55 1837.3L3797.65 1837.33L3797.58 1840.25V1854H3803.13V1827H3796.43L3790.13 1842.77L3789.12 1845.47H3789.01L3788.01 1842.77L3781.74 1827H3775.05ZM3814.32 1848.71V1842.55H3824.29V1837.73H3814.32V1832.36H3826.16L3826.05 1827H3808.23V1854H3826.59L3826.74 1848.71H3814.32ZM3843.48 1827L3839.67 1845.32L3839.16 1848.17H3839.05L3838.59 1845.29L3835.2 1827H3828.9L3835.27 1854H3842.55L3846.07 1835.96L3846.58 1833.05H3846.69L3847.19 1835.93L3850.75 1854H3858.03L3864.4 1827H3858.39L3855 1845.11L3854.53 1847.99H3854.43L3853.89 1845.14L3850.07 1827H3843.48ZM3889.94 1840.5C3889.94 1830.89 3886.52 1826.57 3878.06 1826.57C3869.64 1826.57 3866.15 1830.89 3866.15 1840.5C3866.15 1850.11 3869.75 1854.5 3878.06 1854.5C3886.52 1854.5 3889.94 1850.29 3889.94 1840.5ZM3883.61 1840.5C3883.61 1847.3 3882.17 1849.07 3878.1 1849.07C3874 1849.07 3872.52 1847.34 3872.52 1840.5C3872.52 1833.66 3873.96 1832 3878.06 1832C3882.2 1832 3883.61 1833.66 3883.61 1840.5ZM3914.03 1835.39C3914.03 1829.63 3910.68 1827 3903.99 1827H3894.09V1854H3900.17V1843.92H3903.99L3908.7 1854H3915.79L3909.49 1842.73C3912.41 1841.83 3914.03 1839.17 3914.03 1835.39ZM3907.69 1835.64C3907.69 1838.56 3906.61 1839.38 3903.91 1839.38H3900.17V1832.04H3904.02C3906.69 1832.04 3907.69 1832.9 3907.69 1835.64ZM3941.45 1854L3932.95 1839.82L3941.02 1827H3934.07L3927.55 1837.69H3924.64V1827H3918.55V1854H3924.64V1842.62H3927.48L3934.14 1854H3941.45ZM3961.67 1845.9C3961.67 1836.76 3949.25 1838.7 3949.25 1834.49C3949.25 1833.05 3950.15 1831.9 3953.5 1831.9C3955.55 1831.9 3957.78 1832.33 3960.02 1833.05L3960.77 1827.94C3958.68 1827.07 3955.84 1826.53 3953.21 1826.53C3946.37 1826.53 3943.42 1830.24 3943.42 1834.81C3943.42 1843.85 3955.84 1842.05 3955.84 1846.3C3955.84 1848.17 3954.54 1849.25 3951.59 1849.25C3948.93 1849.25 3946.48 1848.53 3944.1 1847.27L3943.31 1852.49C3945.65 1853.75 3948.53 1854.5 3951.66 1854.5C3957.96 1854.5 3961.67 1851.23 3961.67 1845.9Z" fill="white"/>
<rect x="1545" y="81" width="311" height="72" rx="4" fill="#375AA5"/>
<path d="M1589.76 108.472L1589.66 103H1571.87V130H1577.92V119.488H1587.71L1587.78 114.304H1577.92V108.472H1589.76ZM1613.08 111.388C1613.08 105.628 1609.74 103 1603.04 103H1593.14V130H1599.22V119.92H1603.04L1607.76 130H1614.85L1608.55 118.732C1611.46 117.832 1613.08 115.168 1613.08 111.388ZM1606.75 111.64C1606.75 114.556 1605.67 115.384 1602.97 115.384H1599.22V108.04H1603.08C1605.74 108.04 1606.75 108.904 1606.75 111.64ZM1634.49 130H1641.26L1631.83 103H1624.59L1615.27 130H1621.68L1623.19 124.744H1632.98L1634.49 130ZM1628.12 107.572H1628.23L1628.95 110.416L1631.54 119.668H1624.66L1627.36 110.416L1628.12 107.572ZM1644.05 103V130H1649.41V116.284L1649.37 113.368L1649.45 113.332L1650.45 116.068L1655.96 130H1659.99L1665.54 116.032L1666.55 113.296L1666.65 113.332L1666.58 116.248V130H1672.13V103H1665.43L1659.13 118.768L1658.12 121.468H1658.01L1657.01 118.768L1650.74 103H1644.05ZM1683.32 124.708V118.552H1693.29V113.728H1683.32V108.364H1695.16L1695.05 103H1677.23V130H1695.59L1695.74 124.708H1683.32ZM1712.48 103L1708.67 121.324L1708.16 124.168H1708.05L1707.59 121.288L1704.2 103H1697.9L1704.27 130H1711.55L1715.07 111.964L1715.58 109.048H1715.69L1716.19 111.928L1719.75 130H1727.03L1733.4 103H1727.39L1724 121.108L1723.53 123.988H1723.43L1722.89 121.144L1719.07 103H1712.48ZM1758.94 116.5C1758.94 106.888 1755.52 102.568 1747.06 102.568C1738.64 102.568 1735.15 106.888 1735.15 116.5C1735.15 126.112 1738.75 130.504 1747.06 130.504C1755.52 130.504 1758.94 126.292 1758.94 116.5ZM1752.61 116.5C1752.61 123.304 1751.17 125.068 1747.1 125.068C1743 125.068 1741.52 123.34 1741.52 116.5C1741.52 109.66 1742.96 108.004 1747.06 108.004C1751.2 108.004 1752.61 109.66 1752.61 116.5ZM1783.03 111.388C1783.03 105.628 1779.68 103 1772.99 103H1763.09V130H1769.17V119.92H1772.99L1777.7 130H1784.79L1778.49 118.732C1781.41 117.832 1783.03 115.168 1783.03 111.388ZM1776.69 111.64C1776.69 114.556 1775.61 115.384 1772.91 115.384H1769.17V108.04H1773.02C1775.69 108.04 1776.69 108.904 1776.69 111.64ZM1810.45 130L1801.95 115.816L1810.02 103H1803.07L1796.55 113.692H1793.64V103H1787.55V130H1793.64V118.624H1796.48L1803.14 130H1810.45ZM1830.67 121.9C1830.67 112.756 1818.25 114.7 1818.25 110.488C1818.25 109.048 1819.15 107.896 1822.5 107.896C1824.55 107.896 1826.78 108.328 1829.02 109.048L1829.77 103.936C1827.68 103.072 1824.84 102.532 1822.21 102.532C1815.37 102.532 1812.42 106.24 1812.42 110.812C1812.42 119.848 1824.84 118.048 1824.84 122.296C1824.84 124.168 1823.54 125.248 1820.59 125.248C1817.93 125.248 1815.48 124.528 1813.1 123.268L1812.31 128.488C1814.65 129.748 1817.53 130.504 1820.66 130.504C1826.96 130.504 1830.67 127.228 1830.67 121.9Z" fill="white"/>
<g filter="url(#filter0_d_84_3721)">
<path d="M1481.5 827.5H2400C2426.51 827.5 2448 848.99 2448 875.5V1151C2448 1177.51 2426.51 1199 2400 1199H2189.5C2158.57 1199 2133.5 1224.07 2133.5 1255V1343" stroke="white" stroke-width="40" stroke-linecap="round" stroke-linejoin="round"/>
</g>
<g filter="url(#filter1_d_84_3721)">
<path d="M243.5 331H816.5C843.01 331 864.5 352.49 864.5 379V583C864.5 609.51 885.99 631 912.5 631H1293.5C1320.01 631 1341.5 652.49 1341.5 679V779.5C1341.5 806.01 1362.99 827.5 1389.5 827.5H2428C2454.51 827.5 2476 848.99 2476 875.5V1175C2476 1188.25 2465.25 1199 2452 1199H2189.5C2158.57 1199 2133.5 1224.07 2133.5 1255V1419C2133.5 1445.51 2112.01 1467 2085.5 1467H1833.5C1806.99 1467 1785.5 1488.49 1785.5 1515V1813.5C1785.5 1840.01 1806.99 1861.5 1833.5 1861.5H2094" stroke="#91C882" stroke-width="24" stroke-linecap="round" stroke-linejoin="round"/>
</g>
<rect x="225" y="271" width="164" height="72" rx="4" fill="#91C882"/>
<path d="M270.14 298.472L269.996 293H249.656L249.512 298.472H256.748V320H262.868V298.472H270.14ZM295.131 306.5C295.131 296.888 291.711 292.568 283.251 292.568C274.827 292.568 271.335 296.888 271.335 306.5C271.335 316.112 274.935 320.504 283.251 320.504C291.711 320.504 295.131 316.292 295.131 306.5ZM288.795 306.5C288.795 313.304 287.355 315.068 283.287 315.068C279.183 315.068 277.707 313.34 277.707 306.5C277.707 299.66 279.147 298.004 283.251 298.004C287.391 298.004 288.795 299.66 288.795 306.5ZM322.061 306.5C322.061 296.888 318.641 292.568 310.181 292.568C301.757 292.568 298.265 296.888 298.265 306.5C298.265 316.112 301.865 320.504 310.181 320.504C318.641 320.504 322.061 316.292 322.061 306.5ZM315.725 306.5C315.725 313.304 314.285 315.068 310.217 315.068C306.113 315.068 304.637 313.34 304.637 306.5C304.637 299.66 306.077 298.004 310.181 298.004C314.321 298.004 315.725 299.66 315.725 306.5ZM332.322 314.528V293H326.202V320H343.302L343.446 314.528H332.322ZM363.871 311.9C363.871 302.756 351.451 304.7 351.451 300.488C351.451 299.048 352.351 297.896 355.699 297.896C357.751 297.896 359.983 298.328 362.215 299.048L362.971 293.936C360.883 293.072 358.039 292.532 355.411 292.532C348.571 292.532 345.619 296.24 345.619 300.812C345.619 309.848 358.039 308.048 358.039 312.296C358.039 314.168 356.743 315.248 353.791 315.248C351.127 315.248 348.679 314.528 346.303 313.268L345.511 318.488C347.851 319.748 350.731 320.504 353.863 320.504C360.163 320.504 363.871 317.228 363.871 311.9Z" fill="white"/>
<rect x="1948" y="1849" width="164" height="72" rx="4" fill="#91C882"/>
<path d="M1993.14 1876.47L1993 1871H1972.66L1972.51 1876.47H1979.75V1898H1985.87V1876.47H1993.14ZM2018.13 1884.5C2018.13 1874.89 2014.71 1870.57 2006.25 1870.57C1997.83 1870.57 1994.34 1874.89 1994.34 1884.5C1994.34 1894.11 1997.94 1898.5 2006.25 1898.5C2014.71 1898.5 2018.13 1894.29 2018.13 1884.5ZM2011.8 1884.5C2011.8 1891.3 2010.36 1893.07 2006.29 1893.07C2002.18 1893.07 2000.71 1891.34 2000.71 1884.5C2000.71 1877.66 2002.15 1876 2006.25 1876C2010.39 1876 2011.8 1877.66 2011.8 1884.5ZM2045.06 1884.5C2045.06 1874.89 2041.64 1870.57 2033.18 1870.57C2024.76 1870.57 2021.26 1874.89 2021.26 1884.5C2021.26 1894.11 2024.86 1898.5 2033.18 1898.5C2041.64 1898.5 2045.06 1894.29 2045.06 1884.5ZM2038.72 1884.5C2038.72 1891.3 2037.28 1893.07 2033.22 1893.07C2029.11 1893.07 2027.64 1891.34 2027.64 1884.5C2027.64 1877.66 2029.08 1876 2033.18 1876C2037.32 1876 2038.72 1877.66 2038.72 1884.5ZM2055.32 1892.53V1871H2049.2V1898H2066.3L2066.45 1892.53H2055.32ZM2086.87 1889.9C2086.87 1880.76 2074.45 1882.7 2074.45 1878.49C2074.45 1877.05 2075.35 1875.9 2078.7 1875.9C2080.75 1875.9 2082.98 1876.33 2085.22 1877.05L2085.97 1871.94C2083.88 1871.07 2081.04 1870.53 2078.41 1870.53C2071.57 1870.53 2068.62 1874.24 2068.62 1878.81C2068.62 1887.85 2081.04 1886.05 2081.04 1890.3C2081.04 1892.17 2079.74 1893.25 2076.79 1893.25C2074.13 1893.25 2071.68 1892.53 2069.3 1891.27L2068.51 1896.49C2070.85 1897.75 2073.73 1898.5 2076.86 1898.5C2083.16 1898.5 2086.87 1895.23 2086.87 1889.9Z" fill="white"/>
<g style="mix-blend-mode:luminosity" clip-path="url(#clip1_84_3721)">
<path d="M1861 1066.19L1866.58 1083H1866.58L1879.62 1069.29L1879.76 1069.14L1861.26 1066.03L1861 1066.19Z" fill="#E60032"/>
<path d="M1861 1066.19L1920.87 1076.17L1927 1062.58L1873.92 1039.04L1861 1066.19Z" fill="#6ECDF5"/>
<path d="M1861 1066.19L1920.87 1076.17L1913.21 1034L1861 1066.19Z" fill="#64B9E6"/>
<path d="M1861 1066.19L1920.87 1076.17L1917.65 1058.43L1892.01 1047.07L1861 1066.19Z" fill="#2D91D2"/>
<path d="M1861 1066.19L1879.62 1069.29L1913.21 1034L1861 1066.19Z" fill="#375AA5"/>
<path d="M1861 1066.19L1879.62 1069.29L1898.17 1049.8L1892.01 1047.07L1861 1066.19Z" fill="#1E3791"/>
</g>
<g style="mix-blend-mode:luminosity" clip-path="url(#clip2_84_3721)">
<path fill-rule="evenodd" clip-rule="evenodd" d="M2082.38 1138.89L2072.28 1133.19L2072.48 1107.69L2093.08 1096L2102.86 1101.55L2102.82 1127.21L2082.38 1138.89Z" fill="#F64C72"/>
<path fill-rule="evenodd" clip-rule="evenodd" d="M2073.41 1104.58L2070.15 1106.44L2070.07 1117.79L2058.53 1124.41L2058.37 1145.02L2049 1139.67L2049.19 1114.12L2069.62 1102.41L2073.41 1104.58Z" fill="#393A61"/>
<path fill-rule="evenodd" clip-rule="evenodd" d="M2070.2 1120.51L2070.1 1134.69L2082.43 1141.72L2091.08 1136.73L2091.06 1145.31L2070.79 1157L2060.78 1151.3L2060.97 1125.79L2070.2 1120.51Z" fill="#2F2FA2"/>
</g>
</g>
<defs>
<filter id="filter0_d_84_3721" x="1461.5" y="807.5" width="1006.5" height="555.5" filterUnits="userSpaceOnUse" color-interpolation-filters="sRGB">
<feFlood flood-opacity="0" result="BackgroundImageFix"/>
<feColorMatrix in="SourceAlpha" type="matrix" values="0 0 0 0 0 0 0 0 0 0 0 0 0 0 0 0 0 0 127 0" result="hardAlpha"/>
<feOffset/>
<feComposite in2="hardAlpha" operator="out"/>
<feColorMatrix type="matrix" values="0 0 0 0 1 0 0 0 0 1 0 0 0 0 1 0 0 0 1 0"/>
<feBlend mode="normal" in2="BackgroundImageFix" result="effect1_dropShadow_84_3721"/>
<feBlend mode="normal" in="SourceGraphic" in2="effect1_dropShadow_84_3721" result="shape"/>
</filter>
<filter id="filter1_d_84_3721" x="231.5" y="319" width="2256.5" height="1554.5" filterUnits="userSpaceOnUse" color-interpolation-filters="sRGB">
<feFlood flood-opacity="0" result="BackgroundImageFix"/>
<feColorMatrix in="SourceAlpha" type="matrix" values="0 0 0 0 0 0 0 0 0 0 0 0 0 0 0 0 0 0 127 0" result="hardAlpha"/>
<feOffset/>
<feComposite in2="hardAlpha" operator="out"/>
<feColorMatrix type="matrix" values="0 0 0 0 1 0 0 0 0 1 0 0 0 0 1 0 0 0 1 0"/>
<feBlend mode="normal" in2="BackgroundImageFix" result="effect1_dropShadow_84_3721"/>
<feBlend mode="normal" in="SourceGraphic" in2="effect1_dropShadow_84_3721" result="shape"/>
</filter>
<clipPath id="clip0_84_3721">
<rect width="4096" height="2048" fill="white"/>
</clipPath>
<clipPath id="clip1_84_3721">
<rect width="66" height="49" fill="white" transform="translate(1861 1034)"/>
</clipPath>
<clipPath id="clip2_84_3721">
<rect width="54" height="61" fill="white" transform="translate(2049 1096)"/>
</clipPath>
</defs>
</svg>
