<svg width="379" height="200" viewBox="0 0 379 200" fill="none" xmlns="http://www.w3.org/2000/svg">
<path fill-rule="evenodd" clip-rule="evenodd" d="M110.526 6.89749C110.446 3.01507 107.233 -0.0671333 103.351 0.0131928C99.4683 0.0935188 96.3861 3.30596 96.4665 7.18838L96.6968 18.3233C96.7783 22.2626 93.6073 25.5 89.6671 25.5H19.6114C9.53858 25.5 1.36358 33.648 1.3303 43.7208L0.877299 180.83C0.843852 190.95 9.03839 199.172 19.1584 199.172H240.781V185.109H19.1584C16.823 185.109 14.932 183.212 14.9397 180.877L15.3927 43.7673C15.4004 41.4428 17.2869 39.5625 19.6114 39.5625H89.6671C101.488 39.5625 111.001 29.8504 110.756 18.0324L110.526 6.89749ZM275.938 185.109V199.172H371.387C375.27 199.172 378.418 196.024 378.418 192.141C378.418 188.257 375.27 185.109 371.387 185.109H275.938Z" fill="white"/>
</svg>
