<svg width="4096" height="2048" viewBox="0 0 4096 2048" fill="none" xmlns="http://www.w3.org/2000/svg">
<path d="M3969.5 1865.5H2959C2932.49 1865.5 2911 1844.01 2911 1817.5V1726C2911 1699.49 2889.51 1678 2863 1678H2677C2650.49 1678 2629 1656.51 2629 1630V1294C2629 1267.49 2607.51 1246 2581 1246H1606C1588.33 1246 1574 1231.67 1574 1214V823.735C1574 806.062 1588.33 791.735 1606 791.735H1804.5C1826.59 791.735 1844.5 773.827 1844.5 751.735V148C1844.5 121.49 1823.01 100 1796.5 100H1661.5" stroke="#1E3791" stroke-width="24" stroke-linecap="round" stroke-linejoin="round"/>
</svg>
