<svg width="183" height="27" viewBox="0 0 183 27" fill="none" xmlns="http://www.w3.org/2000/svg">
<rect x="0.335938" y="0.609375" width="181.875" height="25.875" rx="1.40625" fill="#E60032"/>
<path d="M17.1428 11.8073C17.1428 9.5925 16.067 8.55469 13.4345 8.55469H10.03V18.0469H12.1689V14.9588H13.4345C16.0797 14.9588 17.1428 13.807 17.1428 11.8073ZM14.9406 11.7947C14.9406 12.9844 14.485 13.2502 13.4345 13.2502H12.1689V10.3392H13.4345C14.5356 10.3392 14.9406 10.6556 14.9406 11.7947ZM25.4461 11.5036C25.4461 9.47859 24.2691 8.55469 21.915 8.55469H18.4346V18.0469H20.5735V14.5031H21.915L23.573 18.0469H26.0663L23.8514 14.0855C24.8766 13.7691 25.4461 12.8325 25.4461 11.5036ZM23.2186 11.5922C23.2186 12.6173 22.8389 12.9084 21.8897 12.9084H20.5735V10.3266H21.9277C22.8642 10.3266 23.2186 10.6303 23.2186 11.5922ZM34.8876 13.3008C34.8876 9.92156 33.6852 8.40281 30.711 8.40281C27.7495 8.40281 26.5218 9.92156 26.5218 13.3008C26.5218 16.68 27.7874 18.2241 30.711 18.2241C33.6852 18.2241 34.8876 16.7433 34.8876 13.3008ZM32.6601 13.3008C32.6601 15.6928 32.1538 16.313 30.7237 16.313C29.2809 16.313 28.762 15.7055 28.762 13.3008C28.762 10.8961 29.2682 10.3139 30.711 10.3139C32.1665 10.3139 32.6601 10.8961 32.6601 13.3008ZM43.3425 12.9464H41.4568V16.1864C41.153 16.275 40.8113 16.313 40.4443 16.313C38.7863 16.313 38.2294 15.6548 38.2294 13.2881C38.2294 10.9467 38.8116 10.2633 40.6847 10.2633C41.4694 10.2633 42.3174 10.4152 42.9882 10.6683L43.1907 8.82047C42.4693 8.55469 41.4694 8.39016 40.5708 8.39016C37.3688 8.39016 35.9893 9.9975 35.9893 13.3134C35.9893 16.5661 37.2549 18.2241 40.4949 18.2241C41.5327 18.2241 42.6338 18.0216 43.3425 17.6925V12.9464ZM51.8957 11.5036C51.8957 9.47859 50.7187 8.55469 48.3646 8.55469H44.8841V18.0469H47.023V14.5031H48.3646L50.0226 18.0469H52.5159L50.301 14.0855C51.3262 13.7691 51.8957 12.8325 51.8957 11.5036ZM49.6682 11.5922C49.6682 12.6173 49.2885 12.9084 48.3393 12.9084H47.023V10.3266H48.3773C49.3138 10.3266 49.6682 10.6303 49.6682 11.5922ZM59.4222 18.0469H61.8016L58.4856 8.55469H55.9417L52.6638 18.0469H54.9166L55.4481 16.1991H58.8906L59.4222 18.0469ZM57.1821 10.162H57.22L57.4731 11.1619L58.3844 14.4145H55.9671L56.9163 11.1619L57.1821 10.162ZM62.7809 8.55469V18.0469H64.6666V13.2248L64.654 12.1997L64.6793 12.187L65.0337 13.1489L66.9701 18.0469H68.3876L70.3366 13.1363L70.691 12.1744L70.729 12.187L70.7037 13.2122V18.0469H72.6527V8.55469H70.2987L68.0838 14.0981L67.7295 15.0473H67.6915L67.3371 14.0981L65.1349 8.55469H62.7809ZM74.4483 8.55469V18.0469H76.3341V13.2248L76.3215 12.1997L76.3468 12.187L76.7011 13.1489L78.6376 18.0469H80.0551L82.0041 13.1363L82.3585 12.1744L82.3965 12.187L82.3711 13.2122V18.0469H84.3202V8.55469H81.9661L79.7513 14.0981L79.3969 15.0473H79.359L79.0046 14.0981L76.8024 8.55469H74.4483ZM86.255 18.0469H88.4319V8.55469H86.255V18.0469ZM92.5064 16.1864V14.0222H96.0122V12.3263H92.5064V10.4405H96.6703L96.6324 8.55469H90.3675V18.0469H96.8222L96.8728 16.1864H92.5064ZM105.215 11.5036C105.215 9.47859 104.038 8.55469 101.684 8.55469H98.2035V18.0469H100.342V14.5031H101.684L103.342 18.0469H105.835L103.62 14.0855C104.646 13.7691 105.215 12.8325 105.215 11.5036ZM102.988 11.5922C102.988 12.6173 102.608 12.9084 101.659 12.9084H100.342V10.3266H101.697C102.633 10.3266 102.988 10.6303 102.988 11.5922ZM112.856 15.1992C112.856 11.9845 108.489 12.668 108.489 11.1872C108.489 10.6809 108.806 10.2759 109.983 10.2759C110.704 10.2759 111.489 10.4278 112.273 10.6809L112.539 8.88375C111.805 8.58 110.805 8.39016 109.881 8.39016C107.477 8.39016 106.439 9.69375 106.439 11.3011C106.439 14.4778 110.805 13.845 110.805 15.3384C110.805 15.9966 110.35 16.3763 109.312 16.3763C108.375 16.3763 107.515 16.1231 106.679 15.6802L106.401 17.5153C107.223 17.9583 108.236 18.2241 109.337 18.2241C111.552 18.2241 112.856 17.0723 112.856 15.1992ZM121.236 11.8073C121.236 9.5925 120.16 8.55469 117.527 8.55469H114.123V18.0469H116.262V14.9588H117.527C120.172 14.9588 121.236 13.807 121.236 11.8073ZM119.033 11.7947C119.033 12.9844 118.578 13.2502 117.527 13.2502H116.262V10.3392H117.527C118.628 10.3392 119.033 10.6556 119.033 11.7947ZM129.539 11.5036C129.539 9.47859 128.362 8.55469 126.008 8.55469H122.527V18.0469H124.666V14.5031H126.008L127.666 18.0469H130.159L127.944 14.0855C128.969 13.7691 129.539 12.8325 129.539 11.5036ZM127.311 11.5922C127.311 12.6173 126.932 12.9084 125.982 12.9084H124.666V10.3266H126.02C126.957 10.3266 127.311 10.6303 127.311 11.5922ZM137.065 18.0469H139.445L136.129 8.55469H133.585L130.307 18.0469H132.56L133.091 16.1991H136.534L137.065 18.0469ZM134.825 10.162H134.863L135.116 11.1619L136.028 14.4145H133.61L134.559 11.1619L134.825 10.162ZM146.33 8.7825C145.786 8.56734 144.887 8.39016 144.128 8.39016C141.09 8.39016 139.724 10.0734 139.724 13.2375C139.724 16.6294 141.116 18.2241 143.989 18.2241C144.824 18.2241 145.735 18.0089 146.355 17.7052L146.14 15.9713C145.609 16.1991 144.989 16.3383 144.292 16.3383C142.559 16.3383 141.964 15.6295 141.964 13.2502C141.964 10.9973 142.533 10.3012 144.254 10.3012C144.963 10.3012 145.621 10.4278 146.115 10.6177L146.33 8.7825ZM155.211 18.0469V8.55469H153.084V12.2377H149.769V8.55469H147.63V18.0469H149.769V14.1614H153.084V18.0469H155.211ZM159.162 16.1864V14.0222H162.668V12.3263H159.162V10.4405H163.326L163.288 8.55469H157.023V18.0469H163.478L163.528 16.1864H159.162ZM172.516 18.0469V8.55469H170.63V13.2755L170.656 14.288L170.63 14.3006L170.061 13.4527L166.681 8.55469H164.859V18.0469H166.757V13.0603L166.745 12.0352L166.77 12.0225L167.34 12.8705L171.023 18.0469H172.516Z" fill="white"/>
</svg>
