<svg width="93" height="27" viewBox="0 0 93 27" fill="none" xmlns="http://www.w3.org/2000/svg">
<rect x="0.738281" y="0.156219" width="91.875" height="25.875" rx="1.40625" fill="#41B496"/>
<path d="M17.8603 17.5937V8.10153H15.7341V11.7845H12.4181V8.10153H10.2792V17.5937H12.4181V13.7083H15.7341V17.5937H17.8603ZM25.6083 17.5937H27.9877L24.6718 8.10153H22.1279L18.8499 17.5937H21.1027L21.6343 15.7459H25.0768L25.6083 17.5937ZM23.3682 9.70888H23.4061L23.6593 10.7087L24.5705 13.9614H22.1532L23.1024 10.7087L23.3682 9.70888ZM35.9785 11.0504C35.9785 9.02544 34.8015 8.10153 32.4474 8.10153H28.967V17.5937H31.1059V14.05H32.4474L34.1054 17.5937H36.5987L34.3838 13.6323C35.409 13.3159 35.9785 12.3793 35.9785 11.0504ZM33.751 11.139C33.751 12.1642 33.3713 12.4553 32.4221 12.4553H31.1059V9.87341H32.4601C33.3967 9.87341 33.751 10.1772 33.751 11.139ZM45.3908 12.8097C45.3908 9.53169 44.1379 8.10153 41.1257 8.10153H37.5693V17.5937H41.151C43.9607 17.5937 45.3908 16.2395 45.3908 12.8097ZM43.1507 12.797C43.1507 15.227 42.5685 15.6953 41.113 15.6953H39.7082V10.0126H41.1004C42.6065 10.0126 43.1507 10.5442 43.1507 12.797ZM51.1354 8.10153L49.7938 14.5436L49.6166 15.5434H49.5787L49.4141 14.5309L48.2244 8.10153H46.0096L48.2498 17.5937H50.8063L52.0466 11.2529L52.2238 10.2278H52.2618L52.439 11.2403L53.6919 17.5937H56.2485L58.4887 8.10153H56.3751L55.1854 14.4676L55.0208 15.4801H54.9829L54.793 14.4803L53.4515 8.10153H51.1354ZM65.0726 17.5937H67.452L64.136 8.10153H61.5921L58.3141 17.5937H60.567L61.0985 15.7459H64.541L65.0726 17.5937ZM62.8324 9.70888H62.8704L63.1235 10.7087L64.0348 13.9614H61.6174L62.5666 10.7087L62.8324 9.70888ZM75.4428 11.0504C75.4428 9.02544 74.2658 8.10153 71.9117 8.10153H68.4312V17.5937H70.5701V14.05H71.9117L73.5697 17.5937H76.0629L73.8481 13.6323C74.8733 13.3159 75.4428 12.3793 75.4428 11.0504ZM73.2153 11.139C73.2153 12.1642 72.8356 12.4553 71.8864 12.4553H70.5701V9.87341H71.9244C72.8609 9.87341 73.2153 10.1772 73.2153 11.139ZM79.1724 15.7333V13.569H82.6782V11.8731H79.1724V9.98731H83.3363L83.2984 8.10153H77.0335V17.5937H83.4882L83.5388 15.7333H79.1724Z" fill="white"/>
</svg>
