<svg width="111" height="27" viewBox="0 0 111 27" fill="none" xmlns="http://www.w3.org/2000/svg">
<rect x="0.933594" y="0.289062" width="109.875" height="25.875" rx="1.40625" fill="#375AA5"/>
<path d="M16.9402 10.1581L16.9023 8.23437H10.6501V17.7266H12.7763V14.0309H16.2188L16.2441 12.2084H12.7763V10.1581H16.9402ZM25.1389 11.1833C25.1389 9.15828 23.9619 8.23437 21.6078 8.23437H18.1273V17.7266H20.2662V14.1828H21.6078L23.2658 17.7266H25.7591L23.5442 13.7652C24.5694 13.4487 25.1389 12.5122 25.1389 11.1833ZM22.9114 11.2719C22.9114 12.297 22.5317 12.5881 21.5825 12.5881H20.2662V10.0063H21.6205C22.557 10.0063 22.9114 10.31 22.9114 11.2719ZM32.6654 17.7266H35.0448L31.7289 8.23437H29.1849L25.907 17.7266H28.1598L28.6914 15.8787H32.1339L32.6654 17.7266ZM30.4253 9.84172H30.4632L30.7164 10.8416L31.6276 14.0942H29.2103L30.1595 10.8416L30.4253 9.84172ZM36.0241 8.23437V17.7266H37.9098V12.9045L37.8972 11.8794L37.9225 11.8667L38.2769 12.8286L40.2133 17.7266H41.6308L43.5798 12.8159L43.9342 11.8541L43.9722 11.8667L43.9469 12.8919V17.7266H45.8959V8.23437H43.5419L41.327 13.7778L40.9727 14.727H40.9347L40.5803 13.7778L38.3781 8.23437H36.0241ZM49.8305 15.8661V13.7019H53.3362V12.0059H49.8305V10.1202H53.9944L53.9564 8.23437H47.6915V17.7266H54.1462L54.1969 15.8661H49.8305ZM60.0835 8.23437L58.7419 14.6764L58.5647 15.6763H58.5268L58.3622 14.6638L57.1726 8.23437H54.9577L57.1979 17.7266H59.7544L60.9947 11.3858L61.1719 10.3606H61.2099L61.3871 11.3731L62.6401 17.7266H65.1966L67.4368 8.23437H65.3232L64.1335 14.6005L63.969 15.613H63.931L63.7412 14.6131L62.3996 8.23437H60.0835ZM76.4177 12.9805C76.4177 9.60125 75.2153 8.0825 72.2411 8.0825C69.2796 8.0825 68.0519 9.60125 68.0519 12.9805C68.0519 16.3597 69.3175 17.9037 72.2411 17.9037C75.2153 17.9037 76.4177 16.423 76.4177 12.9805ZM74.1902 12.9805C74.1902 15.3725 73.6839 15.9927 72.2538 15.9927C70.811 15.9927 70.2921 15.3852 70.2921 12.9805C70.2921 10.5758 70.7983 9.99359 72.2411 9.99359C73.6966 9.99359 74.1902 10.5758 74.1902 12.9805ZM84.8853 11.1833C84.8853 9.15828 83.7083 8.23437 81.3542 8.23437H77.8737V17.7266H80.0126V14.1828H81.3542L83.0122 17.7266H85.5055L83.2906 13.7652C84.3158 13.4487 84.8853 12.5122 84.8853 11.1833ZM82.6578 11.2719C82.6578 12.297 82.2781 12.5881 81.3289 12.5881H80.0126V10.0063H81.3669C82.3034 10.0063 82.6578 10.31 82.6578 11.2719ZM94.5254 17.7266L91.5385 12.74L94.3735 8.23437H91.9309L89.6401 11.9933H88.6149V8.23437H86.476V17.7266H88.6149V13.7272H89.6148L91.9562 17.7266H94.5254ZM101.635 14.8789C101.635 11.6642 97.2684 12.3477 97.2684 10.8669C97.2684 10.3606 97.5848 9.95563 98.7618 9.95563C99.4832 9.95563 100.268 10.1075 101.053 10.3606L101.318 8.56344C100.584 8.25969 99.5844 8.06984 98.6605 8.06984C96.2559 8.06984 95.218 9.37344 95.218 10.9808C95.218 14.1575 99.5844 13.5247 99.5844 15.0181C99.5844 15.6763 99.1288 16.0559 98.091 16.0559C97.1544 16.0559 96.2938 15.8028 95.4585 15.3598L95.1801 17.195C96.0027 17.638 97.0152 17.9037 98.1163 17.9037C100.331 17.9037 101.635 16.752 101.635 14.8789Z" fill="white"/>
</svg>
