<svg width="59" height="27" viewBox="0 0 59 27" fill="none" xmlns="http://www.w3.org/2000/svg">
<rect x="0.773438" y="0.851501" width="57.875" height="25.875" rx="1.40625" fill="#91C882"/>
<path d="M16.7524 10.7206L16.7017 8.79682H9.55097L9.50034 10.7206H12.0442V18.289H14.1958V10.7206H16.7524ZM25.5383 13.5429C25.5383 10.1637 24.3359 8.64495 21.3617 8.64495C18.4002 8.64495 17.1725 10.1637 17.1725 13.5429C17.1725 16.9221 18.4381 18.4662 21.3617 18.4662C24.3359 18.4662 25.5383 16.9854 25.5383 13.5429ZM23.3108 13.5429C23.3108 15.9349 22.8045 16.5551 21.3744 16.5551C19.9316 16.5551 19.4127 15.9476 19.4127 13.5429C19.4127 11.1382 19.9189 10.556 21.3617 10.556C22.8172 10.556 23.3108 11.1382 23.3108 13.5429ZM35.0057 13.5429C35.0057 10.1637 33.8034 8.64495 30.8292 8.64495C27.8676 8.64495 26.64 10.1637 26.64 13.5429C26.64 16.9221 27.9056 18.4662 30.8292 18.4662C33.8034 18.4662 35.0057 16.9854 35.0057 13.5429ZM32.7782 13.5429C32.7782 15.9349 32.272 16.5551 30.8418 16.5551C29.399 16.5551 28.8801 15.9476 28.8801 13.5429C28.8801 11.1382 29.3864 10.556 30.8292 10.556C32.2847 10.556 32.7782 11.1382 32.7782 13.5429ZM38.6134 16.3653V8.79682H36.4618V18.289H42.4735L42.5242 16.3653H38.6134ZM49.7048 15.4414C49.7048 12.2267 45.3384 12.9101 45.3384 11.4293C45.3384 10.9231 45.6548 10.5181 46.8318 10.5181C47.5532 10.5181 48.3379 10.6699 49.1226 10.9231L49.3884 9.12588C48.6543 8.82213 47.6545 8.63229 46.7306 8.63229C44.3259 8.63229 43.2881 9.93588 43.2881 11.5432C43.2881 14.7199 47.6545 14.0871 47.6545 15.5806C47.6545 16.2387 47.1989 16.6184 46.161 16.6184C45.2245 16.6184 44.3639 16.3653 43.5285 15.9223L43.2501 17.7574C44.0728 18.2004 45.0853 18.4662 46.1864 18.4662C48.4012 18.4662 49.7048 17.3145 49.7048 15.4414Z" fill="white"/>
</svg>
