<svg width="4096" height="2048" viewBox="0 0 4096 2048" fill="none" xmlns="http://www.w3.org/2000/svg">
<path d="M195 1797H662C688.51 1797 710 1775.51 710 1749V1663.5C710 1636.99 731.49 1615.5 758 1615.5H1288C1314.51 1615.5 1336 1594.01 1336 1567.5V1378C1336 1351.49 1357.49 1330 1384 1330H1590C1603.25 1330 1614 1319.25 1614 1306V803.5C1614 776.99 1635.49 755.5 1662 755.5H2448C2474.51 755.5 2496 734.01 2496 707.5V456.5C2496 429.99 2474.51 408.5 2448 408.5H2320C2293.49 408.5 2272 387.01 2272 360.5V134" stroke="#E60032" stroke-width="24" stroke-linecap="round" stroke-linejoin="round"/>
</svg>
