<svg width="4096" height="2048" viewBox="0 0 4096 2048" fill="none" xmlns="http://www.w3.org/2000/svg">
<path d="M4013 126H3672C3645.49 126 3624 147.49 3624 174V314C3624 340.51 3602.51 362 3576 362H3287.01C3260.5 362 3239 383.496 3239.01 410.009L3239.07 715.991C3239.07 742.504 3217.58 764 3191.07 764H2564.16C2537.62 764 2516.11 785.542 2516.16 812.085L2516.94 1253.94C2516.97 1271.64 2502.64 1286 2484.94 1286L1598.49 1285.91C1563.15 1285.91 1534.5 1257.25 1534.5 1221.91V1098.15C1534.5 1076.07 1516.6 1058.16 1494.51 1058.15L963.013 1058.01C936.498 1058.01 915 1079.5 915 1106.01V1278C915 1304.51 893.51 1326 867 1326H502.5C475.99 1326 454.5 1304.51 454.5 1278V1224C454.5 1197.49 433.01 1176 406.5 1176H174" stroke="#41B496" stroke-width="24" stroke-linecap="round" stroke-linejoin="round"/>
</svg>
