<svg width="4096" height="2048" viewBox="0 0 4096 2048" fill="none" xmlns="http://www.w3.org/2000/svg">
<path d="M243.5 331H816.5C843.01 331 864.5 352.49 864.5 379V583C864.5 609.51 885.99 631 912.5 631H1293.5C1320.01 631 1341.5 652.49 1341.5 679V779.5C1341.5 806.01 1362.99 827.5 1389.5 827.5H2428C2454.51 827.5 2476 848.99 2476 875.5V1175C2476 1188.25 2465.25 1199 2452 1199H2189.5C2158.57 1199 2133.5 1224.07 2133.5 1255V1419C2133.5 1445.51 2112.01 1467 2085.5 1467H1833.5C1806.99 1467 1785.5 1488.49 1785.5 1515V1813.5C1785.5 1840.01 1806.99 1861.5 1833.5 1861.5H2094" stroke="#91C882" stroke-width="24" stroke-linecap="round" stroke-linejoin="round"/>
</svg>
