<svg width="1280" height="800" viewBox="0 0 1280 800" fill="none" xmlns="http://www.w3.org/2000/svg">
<path d="M1521.21 -0.15625V878.348H-241.523V-0.15625H1521.21Z" fill="#DBDBDB"/>
<path d="M983.168 165.964C995.139 165.979 1006.54 171.08 1014.53 179.995L1121.61 299.471C1128.55 307.209 1132.38 317.236 1132.38 327.628V552.931C1132.38 563.323 1128.55 573.349 1121.61 581.088L1014.57 700.516C1006.56 709.459 995.113 714.562 983.104 714.547L296.52 713.685C284.548 713.67 273.147 708.569 265.156 699.654L158.076 580.178C151.14 572.44 147.305 562.413 147.305 552.021V326.718C147.305 316.326 151.14 306.3 158.076 298.561L265.114 179.132C273.129 170.19 284.575 165.087 296.583 165.102L983.168 165.964Z" fill="#E3E3E3"/>
<path d="M892.207 239.549C904.014 239.563 915.274 244.524 923.252 253.227L997.191 333.877C1004.32 341.658 1008.28 351.83 1008.28 362.386V517.928C1008.28 528.484 1004.32 538.656 997.191 546.437L923.294 627.041C915.291 635.77 903.988 640.734 892.145 640.719L387.48 640.1C375.674 640.085 364.414 635.124 356.435 626.422L282.497 545.772C275.363 537.991 271.406 527.819 271.406 517.263V361.721C271.406 351.165 275.363 340.993 282.497 333.212L356.393 252.608C364.396 243.878 375.7 238.915 387.542 238.929L892.207 239.549Z" fill="#F2F2F2"/>
<path d="M799.218 323.281C812.232 323.281 824.518 329.288 832.511 339.558L855.949 369.675C861.714 377.082 864.844 386.2 864.844 395.585V484.415C864.844 493.8 861.714 502.918 855.949 510.325L832.511 540.442C824.518 550.712 812.232 556.719 799.218 556.719H480.469C467.455 556.719 455.169 550.712 447.176 540.442L423.738 510.325C417.974 502.918 414.844 493.8 414.844 484.415V395.585C414.844 386.2 417.974 377.082 423.738 369.675L447.176 339.558C455.169 329.288 467.455 323.281 480.469 323.281L799.218 323.281Z" fill="white"/>
<rect x="901.055" y="425.656" width="76.6406" height="19.5469" rx="2.46094" fill="#F6F6F6"/>
<path d="M920.388 437.93V431.602H919.89L919.899 436.267L919.915 436.942L919.899 436.951L919.527 436.377L916.363 431.602H915.815V437.93H916.321V433.154L916.313 432.471L916.329 432.462L916.701 433.036L919.974 437.93H920.388ZM922.807 437.407V434.85H925.583V434.377H922.807V432.125H926.013L925.988 431.602H922.258V437.93H926.14L926.165 437.407H922.807ZM932.062 431.602H931.506V435.643C931.506 436.926 930.915 437.508 929.734 437.508C928.544 437.508 927.953 436.942 927.953 435.643V431.602H927.397V435.643C927.397 437.339 928.257 438.048 929.734 438.048C931.202 438.048 932.062 437.339 932.062 435.643V431.602ZM934.342 437.407V434.85H937.118V434.377H934.342V432.125H937.549L937.523 431.602H933.794V437.93H937.675L937.7 437.407H934.342ZM945.516 437.93L945.541 437.398H942.014L942.006 437.373L942.386 436.833L945.533 432.04V431.602H941.441L941.415 432.133H944.849L944.858 432.15L944.478 432.698L941.306 437.55V437.93H945.516ZM951.562 434.766C951.562 432.42 950.878 431.5 949.039 431.5C947.208 431.5 946.516 432.42 946.516 434.766C946.516 437.111 947.217 438.048 949.039 438.048C950.878 438.048 951.562 437.12 951.562 434.766ZM950.988 434.766C950.988 436.892 950.44 437.508 949.047 437.508C947.647 437.508 947.09 436.892 947.09 434.766C947.09 432.631 947.647 432.032 949.039 432.032C950.44 432.032 950.988 432.631 950.988 434.766ZM957.656 437.93V431.602H957.158L957.167 436.267L957.184 436.942L957.167 436.951L956.796 436.377L953.632 431.602H953.083V437.93H953.589V433.154L953.581 432.471L953.598 432.462L953.969 433.036L957.243 437.93H957.656ZM960.075 437.407V434.85H962.851V434.377H960.075V432.125H963.281L963.256 431.602H959.527V437.93H963.408L963.433 437.407H960.075Z" fill="#1E3791"/>
<rect x="901.055" y="425.656" width="76.6406" height="19.5469" rx="2.46094" stroke="#375AA5" stroke-width="0.703125"/>
<rect x="1037.81" y="425.656" width="76.6406" height="19.5469" rx="2.46094" fill="#F6F6F6"/>
<path d="M1056.64 437.93V431.602H1056.09V434.361H1052.67V431.602H1052.11V437.93H1052.67V434.884H1056.09V437.93H1056.64ZM1062.63 437.93H1063.26L1060.85 431.602H1060.19L1057.79 437.93H1058.39L1058.99 436.259H1062.03L1062.63 437.93ZM1060.51 432.015H1060.54L1060.75 432.665L1061.85 435.761H1059.17L1060.29 432.665L1060.51 432.015ZM1064.96 437.39V431.602H1064.4V437.93H1068.08L1068.1 437.39H1064.96ZM1072.61 432.142L1072.6 431.602H1068.09L1068.08 432.142H1070.06V437.93H1070.62V432.142H1072.61ZM1074.26 437.407V434.85H1077.03V434.377H1074.26V432.125H1077.46L1077.44 431.602H1073.71V437.93H1077.59L1077.61 437.407H1074.26ZM1082.74 437.93L1082.76 437.398H1079.23L1079.23 437.373L1079.6 436.833L1082.75 432.04V431.602H1078.66L1078.63 432.133H1082.07L1082.08 432.15L1081.7 432.698L1078.52 437.55V437.93H1082.74ZM1088.78 434.766C1088.78 432.42 1088.1 431.5 1086.26 431.5C1084.43 431.5 1083.74 432.42 1083.74 434.766C1083.74 437.111 1084.44 438.048 1086.26 438.048C1088.1 438.048 1088.78 437.12 1088.78 434.766ZM1088.21 434.766C1088.21 436.892 1087.66 437.508 1086.27 437.508C1084.87 437.508 1084.31 436.892 1084.31 434.766C1084.31 432.631 1084.87 432.032 1086.26 432.032C1087.66 432.032 1088.21 432.631 1088.21 434.766ZM1094.88 437.93V431.602H1094.38L1094.39 436.267L1094.4 436.942L1094.39 436.951L1094.01 436.377L1090.85 431.602H1090.3V437.93H1090.81V433.154L1090.8 432.471L1090.82 432.462L1091.19 433.036L1094.46 437.93H1094.88ZM1097.29 437.407V434.85H1100.07V434.377H1097.29V432.125H1100.5L1100.48 431.602H1096.75V437.93H1100.63L1100.65 437.407H1097.29Z" fill="#1E3791"/>
<rect x="1037.81" y="425.656" width="76.6406" height="19.5469" rx="2.46094" stroke="#375AA5" stroke-width="0.703125"/>
<rect x="1174.57" y="425.656" width="76.6406" height="19.5469" rx="2.46094" fill="#F6F6F6"/>
<path d="M1186.56 431.602L1185.26 436.715L1185.11 437.381H1185.08L1184.94 436.715L1183.76 431.602H1183.18L1184.73 437.93H1185.43L1186.71 432.817L1186.86 432.142H1186.89L1187.03 432.817L1188.3 437.93H1189.01L1190.56 431.602H1190L1188.82 436.706L1188.68 437.373H1188.66L1188.5 436.706L1187.2 431.602H1186.56ZM1196.53 431.602H1195.97V435.643C1195.97 436.926 1195.38 437.508 1194.2 437.508C1193.01 437.508 1192.42 436.942 1192.42 435.643V431.602H1191.86V435.643C1191.86 437.339 1192.73 438.048 1194.2 438.048C1195.67 438.048 1196.53 437.339 1196.53 435.643V431.602ZM1202.84 437.93V431.602H1202.34L1202.35 436.267L1202.36 436.942L1202.35 436.951L1201.97 436.377L1198.81 431.602H1198.26V437.93H1198.77V433.154L1198.76 432.471L1198.78 432.462L1199.15 433.036L1202.42 437.93H1202.84ZM1208.11 436.183C1208.11 433.998 1204.86 434.757 1204.86 433.146C1204.86 432.547 1205.27 432.015 1206.32 432.015C1206.87 432.015 1207.33 432.133 1207.81 432.336L1207.91 431.838C1207.46 431.627 1206.91 431.5 1206.29 431.5C1204.93 431.5 1204.33 432.226 1204.33 433.179C1204.33 435.263 1207.57 434.521 1207.57 436.217C1207.57 437.035 1207.06 437.525 1206.06 437.525C1205.39 437.525 1204.85 437.356 1204.36 437.035L1204.26 437.558C1204.74 437.854 1205.33 438.048 1206.06 438.048C1207.41 438.048 1208.11 437.339 1208.11 436.183ZM1213.26 431.804C1212.93 431.644 1212.31 431.5 1211.78 431.5C1209.94 431.5 1209.11 432.479 1209.11 434.698C1209.11 437.027 1209.92 438.048 1211.76 438.048C1212.33 438.048 1212.91 437.871 1213.29 437.668L1213.2 437.187C1212.82 437.39 1212.36 437.516 1211.83 437.516C1210.37 437.516 1209.69 436.841 1209.69 434.698C1209.69 432.69 1210.36 432.032 1211.81 432.032C1212.33 432.032 1212.84 432.158 1213.18 432.319L1213.26 431.804ZM1219.15 437.93V431.602H1218.59V434.361H1215.18V431.602H1214.62V437.93H1215.18V434.884H1218.59V437.93H1219.15ZM1224.76 437.93L1224.78 437.398H1221.26L1221.25 437.373L1221.63 436.833L1224.78 432.04V431.602H1220.68L1220.66 432.133H1224.09L1224.1 432.15L1223.72 432.698L1220.55 437.55V437.93H1224.76ZM1230.8 434.766C1230.8 432.42 1230.12 431.5 1228.28 431.5C1226.45 431.5 1225.76 432.42 1225.76 434.766C1225.76 437.111 1226.46 438.048 1228.28 438.048C1230.12 438.048 1230.8 437.12 1230.8 434.766ZM1230.23 434.766C1230.23 436.892 1229.68 437.508 1228.29 437.508C1226.89 437.508 1226.33 436.892 1226.33 434.766C1226.33 432.631 1226.89 432.032 1228.28 432.032C1229.68 432.032 1230.23 432.631 1230.23 434.766ZM1236.9 437.93V431.602H1236.4L1236.41 436.267L1236.43 436.942L1236.41 436.951L1236.04 436.377L1232.87 431.602H1232.33V437.93H1232.83V433.154L1232.82 432.471L1232.84 432.462L1233.21 433.036L1236.49 437.93H1236.9ZM1239.32 437.407V434.85H1242.09V434.377H1239.32V432.125H1242.52L1242.5 431.602H1238.77V437.93H1242.65L1242.68 437.407H1239.32Z" fill="#1E3791"/>
<rect x="1174.57" y="425.656" width="76.6406" height="19.5469" rx="2.46094" stroke="#375AA5" stroke-width="0.703125"/>
<rect x="607.852" y="425.305" width="76.6406" height="19.5469" rx="2.46094" fill="#F6F6F6"/>
<path d="M625.808 437.578V431.25H625.251V434.009H621.834V431.25H621.277V437.578H621.834V434.532H625.251V437.578H625.808ZM631.797 437.578H632.421L630.016 431.25H629.358L626.953 437.578H627.553L628.152 435.907H631.198L631.797 437.578ZM629.679 431.663H629.704L629.915 432.313L631.02 435.41H628.337L629.459 432.313L629.679 431.663ZM637.904 431.25H637.347V435.292C637.347 436.574 636.756 437.156 635.575 437.156C634.385 437.156 633.794 436.591 633.794 435.292V431.25H633.238V435.292C633.238 436.987 634.098 437.696 635.575 437.696C637.043 437.696 637.904 436.987 637.904 435.292V431.25ZM643.71 433.132C643.71 431.807 643.086 431.25 641.652 431.25H639.635V437.578H640.192V435.022H641.652C643.103 435.022 643.71 434.406 643.71 433.132ZM643.145 433.132C643.145 434.203 642.639 434.541 641.652 434.541H640.192V431.748H641.652C642.664 431.748 643.145 432.119 643.145 433.132ZM648.811 431.79L648.803 431.25H644.297L644.28 431.79H646.263V437.578H646.82V431.79H648.811ZM653.648 437.578L653.673 437.047H650.146L650.138 437.021L650.517 436.481L653.665 431.689V431.25H649.572L649.547 431.782H652.981L652.99 431.798L652.61 432.347L649.437 437.198V437.578H653.648ZM659.694 434.414C659.694 432.068 659.01 431.149 657.171 431.149C655.34 431.149 654.648 432.068 654.648 434.414C654.648 436.76 655.348 437.696 657.171 437.696C659.01 437.696 659.694 436.768 659.694 434.414ZM659.12 434.414C659.12 436.54 658.571 437.156 657.179 437.156C655.779 437.156 655.222 436.54 655.222 434.414C655.222 432.279 655.779 431.68 657.171 431.68C658.571 431.68 659.12 432.279 659.12 434.414ZM665.788 437.578V431.25H665.29L665.299 435.916L665.316 436.591L665.299 436.599L664.927 436.026L661.763 431.25H661.215V437.578H661.721V432.802L661.713 432.119L661.73 432.111L662.101 432.684L665.375 437.578H665.788ZM668.207 437.055V434.498H670.983V434.026H668.207V431.773H671.413L671.388 431.25H667.658V437.578H671.54L671.565 437.055H668.207Z" fill="#1E3791"/>
<rect x="607.852" y="425.305" width="76.6406" height="19.5469" rx="2.46094" stroke="#375AA5" stroke-width="0.703125"/>
<rect x="607.852" y="267.805" width="76.6406" height="19.5469" rx="2.46094" fill="#F6F6F6"/>
<path d="M627.185 280.078V273.75H626.687L626.695 278.416L626.712 279.091L626.695 279.099L626.324 278.526L623.16 273.75H622.612V280.078H623.118V275.302L623.109 274.619L623.126 274.611L623.498 275.184L626.771 280.078H627.185ZM629.604 279.555V276.998H632.38V276.526H629.604V274.273H632.81L632.785 273.75H629.055V280.078H632.936L632.962 279.555H629.604ZM638.859 273.75H638.302V277.792C638.302 279.074 637.712 279.656 636.531 279.656C635.341 279.656 634.75 279.091 634.75 277.792V273.75H634.193V277.792C634.193 279.487 635.054 280.196 636.531 280.196C637.999 280.196 638.859 279.487 638.859 277.792V273.75ZM641.139 279.555V276.998H643.915V276.526H641.139V274.273H644.345L644.32 273.75H640.591V280.078H644.472L644.497 279.555H641.139ZM652.313 280.078L652.338 279.547H648.811L648.803 279.521L649.183 278.981L652.33 274.189V273.75H648.238L648.212 274.282H651.646L651.655 274.298L651.275 274.847L648.103 279.698V280.078H652.313ZM658.359 276.914C658.359 274.568 657.675 273.649 655.836 273.649C654.005 273.649 653.313 274.568 653.313 276.914C653.313 279.26 654.013 280.196 655.836 280.196C657.675 280.196 658.359 279.268 658.359 276.914ZM657.785 276.914C657.785 279.04 657.237 279.656 655.844 279.656C654.444 279.656 653.887 279.04 653.887 276.914C653.887 274.779 654.444 274.18 655.836 274.18C657.237 274.18 657.785 274.779 657.785 276.914ZM664.453 280.078V273.75H663.955L663.964 278.416L663.981 279.091L663.964 279.099L663.593 278.526L660.428 273.75H659.88V280.078H660.386V275.302L660.378 274.619L660.395 274.611L660.766 275.184L664.04 280.078H664.453ZM666.872 279.555V276.998H669.648V276.526H666.872V274.273H670.078L670.053 273.75H666.324V280.078H670.205L670.23 279.555H666.872Z" fill="#1E3791"/>
<rect x="607.852" y="267.805" width="76.6406" height="19.5469" rx="2.46094" stroke="#375AA5" stroke-width="0.703125"/>
<rect x="607.852" y="188.352" width="76.6406" height="19.5469" rx="2.46094" fill="#F6F6F6"/>
<path d="M626.681 200.625V194.297H626.124V197.056H622.707V194.297H622.15V200.625H622.707V197.579H626.124V200.625H626.681ZM632.67 200.625H633.294L630.89 194.297H630.232L627.827 200.625H628.426L629.025 198.954H632.071L632.67 200.625ZM630.552 194.71H630.578L630.788 195.36L631.894 198.457H629.211L630.333 195.36L630.552 194.71ZM635.001 200.085V194.297H634.444V200.625H638.114L638.14 200.085H635.001ZM642.648 194.837L642.64 194.297H638.134L638.117 194.837H640.1V200.625H640.657V194.837H642.648ZM644.295 200.102V197.545H647.071V197.073H644.295V194.82H647.501L647.476 194.297H643.747V200.625H647.628L647.653 200.102H644.295ZM652.774 200.625L652.8 200.093H649.273L649.264 200.068L649.644 199.528L652.791 194.736V194.297H648.699L648.674 194.828H652.108L652.116 194.845L651.737 195.394L648.564 200.245V200.625H652.774ZM658.82 197.461C658.82 195.115 658.137 194.196 656.297 194.196C654.466 194.196 653.775 195.115 653.775 197.461C653.775 199.807 654.475 200.743 656.297 200.743C658.137 200.743 658.82 199.815 658.82 197.461ZM658.246 197.461C658.246 199.587 657.698 200.203 656.306 200.203C654.905 200.203 654.348 199.587 654.348 197.461C654.348 195.326 654.905 194.727 656.297 194.727C657.698 194.727 658.246 195.326 658.246 197.461ZM664.915 200.625V194.297H664.417L664.425 198.963L664.442 199.638L664.425 199.646L664.054 199.072L660.89 194.297H660.341V200.625H660.848V195.849L660.839 195.166L660.856 195.157L661.227 195.731L664.501 200.625H664.915ZM667.333 200.102V197.545H670.109V197.073H667.333V194.82H670.54L670.514 194.297H666.785V200.625H670.666L670.692 200.102H667.333Z" fill="#1E3791"/>
<rect x="607.852" y="188.352" width="76.6406" height="19.5469" rx="2.46094" stroke="#375AA5" stroke-width="0.703125"/>
<rect x="607.852" y="110.305" width="76.6406" height="19.5469" rx="2.46094" fill="#F6F6F6"/>
<path d="M619.838 116.25L618.539 121.363L618.387 122.03H618.362L618.218 121.363L617.037 116.25H616.463L618.016 122.578H618.708L619.99 117.465L620.142 116.79H620.167L620.311 117.465L621.585 122.578H622.293L623.838 116.25H623.281L622.099 121.355L621.964 122.021H621.939L621.779 121.355L620.479 116.25H619.838ZM629.812 116.25H629.255V120.292C629.255 121.574 628.665 122.156 627.483 122.156C626.294 122.156 625.703 121.591 625.703 120.292V116.25H625.146V120.292C625.146 121.987 626.007 122.696 627.483 122.696C628.951 122.696 629.812 121.987 629.812 120.292V116.25ZM636.117 122.578V116.25H635.619L635.627 120.916L635.644 121.591L635.627 121.599L635.256 121.026L632.092 116.25H631.544V122.578H632.05V117.802L632.041 117.119L632.058 117.111L632.429 117.684L635.703 122.578H636.117ZM641.396 120.832C641.396 118.646 638.139 119.406 638.139 117.794C638.139 117.195 638.552 116.663 639.599 116.663C640.147 116.663 640.611 116.782 641.092 116.984L641.193 116.486C640.746 116.275 640.189 116.149 639.573 116.149C638.215 116.149 637.607 116.874 637.607 117.828C637.607 119.912 640.856 119.169 640.856 120.865C640.856 121.684 640.341 122.173 639.337 122.173C638.67 122.173 638.13 122.004 637.641 121.684L637.54 122.207C638.021 122.502 638.611 122.696 639.337 122.696C640.687 122.696 641.396 121.987 641.396 120.832ZM646.538 116.452C646.209 116.292 645.593 116.149 645.062 116.149C643.222 116.149 642.395 117.127 642.395 119.347C642.395 121.675 643.205 122.696 645.045 122.696C645.61 122.696 646.192 122.519 646.572 122.317L646.479 121.836C646.099 122.038 645.644 122.165 645.112 122.165C643.653 122.165 642.969 121.49 642.969 119.347C642.969 117.338 643.644 116.68 645.087 116.68C645.61 116.68 646.116 116.807 646.462 116.967L646.538 116.452ZM652.43 122.578V116.25H651.874V119.009H648.456V116.25H647.899V122.578H648.456V119.532H651.874V122.578H652.43ZM658.04 122.578L658.065 122.047H654.538L654.53 122.021L654.909 121.481L658.056 116.689V116.25H653.964L653.939 116.782H657.373L657.381 116.798L657.002 117.347L653.829 122.198V122.578H658.04ZM664.085 119.414C664.085 117.068 663.402 116.149 661.563 116.149C659.732 116.149 659.04 117.068 659.04 119.414C659.04 121.76 659.74 122.696 661.563 122.696C663.402 122.696 664.085 121.768 664.085 119.414ZM663.512 119.414C663.512 121.54 662.963 122.156 661.571 122.156C660.17 122.156 659.613 121.54 659.613 119.414C659.613 117.279 660.17 116.68 661.563 116.68C662.963 116.68 663.512 117.279 663.512 119.414ZM670.18 122.578V116.25H669.682L669.69 120.916L669.707 121.591L669.69 121.599L669.319 121.026L666.155 116.25H665.607V122.578H666.113V117.802L666.104 117.119L666.121 117.111L666.493 117.684L669.766 122.578H670.18ZM672.599 122.055V119.498H675.375V119.026H672.599V116.773H675.805L675.78 116.25H672.05V122.578H675.931L675.957 122.055H672.599Z" fill="#1E3791"/>
<rect x="607.852" y="110.305" width="76.6406" height="19.5469" rx="2.46094" stroke="#375AA5" stroke-width="0.703125"/>
</svg>
