<svg width="4096" height="2048" viewBox="0 0 4096 2048" fill="none" xmlns="http://www.w3.org/2000/svg">
    <g id="Zonen">
        <path id="Wunschzone" d="M4096 0V2048H0V0H4096Z" fill="#DBDBDB" />
        <path id="Haltezone"
            d="M3024.57 244.52C3058.62 244.562 3091.05 259.071 3113.78 284.429L3418.36 624.272C3438.09 646.285 3449 674.804 3449 704.363V1345.23C3449 1374.78 3438.09 1403.3 3418.36 1425.32L3113.9 1765.02C3091.1 1790.46 3058.54 1804.98 3024.39 1804.93L1071.43 1802.48C1037.38 1802.44 1004.95 1787.93 982.223 1762.57L677.638 1422.73C657.91 1400.72 647 1372.2 647 1342.64V701.776C647 672.217 657.91 643.698 677.638 621.686L982.102 281.977C1004.9 256.54 1037.46 242.025 1071.61 242.067L3024.57 244.52Z"
            fill="#E3E3E3" />
        <path id="Neue Zone"
            d="M2765.83 453.827C2799.42 453.868 2831.45 467.98 2854.14 492.734L3064.45 722.139C3084.74 744.272 3096 773.206 3096 803.232V1245.66C3096 1275.69 3084.74 1304.62 3064.45 1326.75L2854.26 1556.03C2831.49 1580.86 2799.34 1594.98 2765.66 1594.94L1330.17 1593.17C1296.58 1593.13 1264.55 1579.02 1241.86 1554.27L1031.55 1324.86C1011.26 1302.73 1000 1273.79 1000 1243.77V801.34C1000 771.315 1011.26 742.38 1031.55 720.248L1241.74 490.972C1264.51 466.142 1296.66 452.024 1330.34 452.065L2765.83 453.827Z"
            fill="#F2F2F2" />
        <path id="Hauptzone"
            d="M2501.33 692C2538.35 692 2573.3 709.085 2596.03 738.3L2662.7 823.964C2679.1 845.033 2688 870.968 2688 897.665V1150.34C2688 1177.03 2679.1 1202.97 2662.7 1224.04L2596.03 1309.7C2573.3 1338.91 2538.35 1356 2501.33 1356H1594.67C1557.65 1356 1522.7 1338.91 1499.97 1309.7L1433.3 1224.04C1416.9 1202.97 1408 1177.03 1408 1150.34V897.665C1408 870.968 1416.9 845.033 1433.3 823.964L1499.97 738.299C1522.7 709.085 1557.65 692 1594.67 692L2501.33 692Z"
            fill="white" />
        <g id="Labels">
            <g id="Trial">
                <rect x="2791" y="984" width="218" height="54" rx="7" fill="#F6F6F6" />
                <text id="Neue Zone_2" fill="#1E3791" xml:space="preserve" style="white-space: pre"
                    font-family="Clan Pro" font-size="24" font-weight="450" letter-spacing="0em">
                    <tspan x="2830.32" y="1019.46">NEUE ZONE</tspan>
                </text>
                <rect x="2791" y="984" width="218" height="54" rx="7" stroke="#375AA5" stroke-width="2" />
            </g>
            <g id="Hold">
                <rect x="3180" y="984" width="218" height="54" rx="7" fill="#F6F6F6" />
                <text id="HalteZone" fill="#1E3791" xml:space="preserve" style="white-space: pre" font-family="Clan Pro"
                    font-size="24" font-weight="450" letter-spacing="0em">
                    <tspan x="3218.01" y="1019.46">HALTEZONE</tspan>
                </text>
                <rect x="3180" y="984" width="218" height="54" rx="7" stroke="#375AA5" stroke-width="2" />
            </g>
            <g id="Wish">
                <rect x="3569" y="984" width="218" height="54" rx="7" fill="#F6F6F6" />
                <text id="Wunschzone_2" fill="#1E3791" xml:space="preserve" style="white-space: pre"
                    font-family="Clan Pro" font-size="24" font-weight="450" letter-spacing="0em">
                    <tspan x="3592.03" y="1019.46">WUNSCHZONE</tspan>
                </text>
                <rect x="3569" y="984" width="218" height="54" rx="7" stroke="#375AA5" stroke-width="2" />
            </g>
            <g id="Adopt">
                <rect x="1957" y="983" width="218" height="54" rx="7" fill="#F6F6F6" />
                <text id="Hauptzone_2" fill="#1E3791" xml:space="preserve" style="white-space: pre"
                    font-family="Clan Pro" font-size="24" font-weight="450" letter-spacing="0em">
                    <tspan x="1992.52" y="1018.46">HAUPTZONE</tspan>
                </text>
                <rect x="1957" y="983" width="218" height="54" rx="7" stroke="#375AA5" stroke-width="2" />
            </g>
            <g id="Trial_2">
                <rect x="1957" y="535" width="218" height="54" rx="7" fill="#F6F6F6" />
                <text id="Neue Zone_3" fill="#1E3791" xml:space="preserve" style="white-space: pre"
                    font-family="Clan Pro" font-size="24" font-weight="450" letter-spacing="0em">
                    <tspan x="1996.32" y="570.46">NEUE ZONE</tspan>
                </text>
                <rect x="1957" y="535" width="218" height="54" rx="7" stroke="#375AA5" stroke-width="2" />
            </g>
            <g id="Hold_2">
                <rect x="1957" y="309" width="218" height="54" rx="7" fill="#F6F6F6" />
                <text id="Haltezone_2" fill="#1E3791" xml:space="preserve" style="white-space: pre"
                    font-family="Clan Pro" font-size="24" font-weight="450" letter-spacing="0em">
                    <tspan x="1995.01" y="344.46">HALTEZONE</tspan>
                </text>
                <rect x="1957" y="309" width="218" height="54" rx="7" stroke="#375AA5" stroke-width="2" />
            </g>
            <g id="Wish_2">
                <rect x="1957" y="87" width="218" height="54" rx="7" fill="#F6F6F6" />
                <text id="Wunschzone_3" fill="#1E3791" xml:space="preserve" style="white-space: pre"
                    font-family="Clan Pro" font-size="24" font-weight="450" letter-spacing="0em">
                    <tspan x="1980.03" y="122.46">WUNSCHZONE</tspan>
                </text>
                <rect x="1957" y="87" width="218" height="54" rx="7" stroke="#375AA5" stroke-width="2" />
            </g>
        </g>
    </g>
</svg>